<svg xmlns="http://www.w3.org/2000/svg" viewBox="0 0 256 367" preserveAspectRatio="xMidYMid">
  <path fill="#34A853" d="M70.585 271.865l-28.96 42.96C90.395 344.458 150.036 362 192.44 362c26.717 0 56.487-6.53 79.56-19.56l-32.18-47.7c-13.8 7.7-31.04 12.26-47.38 12.26-41.2 0-82.36-15.02-121.855-35.135z"/>
  <path fill="#FBBC04" d="M256 130.28c0-36.36-12.21-68.22-35.56-92.82L171.6 86.4c11.44 12.52 20.4 29.16 20.4 43.88 0 14.16-6.48 29.56-19.68 51.64l32.18 47.7c31.8-38.6 51.5-68.2 51.5-99.34z"/>
  <path fill="#4285F4" d="M128 0C74.56 0 25.28 31.36 3.2 77.44l48.84 36.32c14.56-35.44 49.76-57.76 76.4-57.76 17.56 0 33.44 5.28 46 15.4L220.44 37.46C194.16 14.22 162 0 128 0z"/>
  <path fill="#1A73E8" d="M128 362c-45.04 0-93.68-24.32-127.2-51.04L28.96 271.8l-25.76-38.24C1.12 220.12 0 206.64 0 192.44c0-22.4 6.32-46.72 19.2-71l-16-11.88L52.04 77.44c-8.88 17.12-16.04 35.68-16.04 55.56 0 6.96 1.12 14.08 3.04 21.24L128 217.12l89.04-63.88c3.2 9.92 5.76 20.08 5.76 33.56 0 16.2-4.48 32-12.04 47.2l-32.18-47.7c-5.92 9.44-13.12 19.04-22.58 30.3L128 237.6l-88.96-63.2C26.36 199.92 20 226.12 20 246.04c0 6.48.64 12.96 1.84 19.28 16.96 18.68 56.68 52.96 106.16 65.68z"/>
  <path fill="#EA4335" d="M128 56c26.64 0 53.36 12.88 69.6 29.12l46-49.12C217.84 14.22 176.56 0 128 0 79.04 0 36.48 24.88 11.2 62.44l48.84 36.32C70.16 73.44 96.56 56 128 56z"/>
</svg>
