<?xml version="1.0" encoding="UTF-8"?>
<svg version="1.1" xmlns="http://www.w3.org/2000/svg" viewBox="0 0 1645 640" width="1645" height="640">
<path d="M0 0 C542.85 0 1085.7 0 1645 0 C1645 211.2 1645 422.4 1645 640 C1102.15 640 559.3 640 0 640 C0 428.8 0 217.6 0 0 Z " fill="#FEFEFE" transform="translate(0,0)"/>
<path d="M0 0 C1.38601541 -0.00266251 1.38601541 -0.00266251 2.80003113 -0.00537882 C5.93754709 -0.0101598 9.07501789 -0.00773597 12.2125361 -0.00541991 C14.4778601 -0.00737098 16.74318377 -0.00975911 19.00850689 -0.01254788 C25.28898243 -0.01898162 31.56944524 -0.01910683 37.84992344 -0.01827047 C43.96026448 -0.01793599 50.07060199 -0.02324435 56.18094082 -0.02792798 C68.83914044 -0.03745342 81.49733785 -0.04214948 94.1555407 -0.04423732 C106.99066354 -0.04636365 119.82578296 -0.05061826 132.66090417 -0.05748004 C133.47036011 -0.05791065 134.27981604 -0.05834127 135.11380095 -0.05878493 C138.4103761 -0.06054322 141.70695125 -0.06231286 145.0035264 -0.06409795 C184.99865514 -0.08571316 224.99378458 -0.09657883 264.98891784 -0.10557419 C277.95540258 -0.10850688 290.92188715 -0.11187659 303.88837171 -0.1155414 C304.80273821 -0.11579969 305.71710472 -0.11605798 306.6591793 -0.1163241 C310.35815419 -0.11737028 314.05712907 -0.11841871 317.75610396 -0.11946992 C381.02632765 -0.13743513 444.2965516 -0.15281563 507.56677748 -0.16022895 C512.5379812 -0.16081293 517.50918493 -0.1614102 522.48038866 -0.16200657 C523.95960916 -0.16218375 523.95960916 -0.16218375 525.46871291 -0.16236451 C535.46007083 -0.16356192 545.45142874 -0.16477068 555.44278665 -0.16599704 C557.44611132 -0.16624227 559.44943599 -0.16648613 561.45276067 -0.16672861 C625.80900722 -0.17452039 690.16523554 -0.19690797 754.52147412 -0.22940504 C800.75441375 -0.25274276 846.98734977 -0.27429863 893.22029519 -0.28141135 C894.64575185 -0.28163188 894.64575185 -0.28163188 896.10000562 -0.28185687 C916.95908239 -0.28504131 937.81815912 -0.28709247 958.67723611 -0.28808442 C967.06957097 -0.28849917 975.46190581 -0.28905407 983.85424066 -0.28964633 C984.77275305 -0.289707 985.69126545 -0.28976766 986.63761155 -0.28983017 C1016.25382594 -0.29184812 1045.87001884 -0.30610091 1075.48622573 -0.32659133 C1105.30727892 -0.34715036 1135.12830725 -0.3550778 1164.94936682 -0.34551357 C1169.06629648 -0.34419503 1173.18322616 -0.34301701 1177.30015588 -0.34192294 C1178.51075232 -0.34159317 1178.51075232 -0.34159317 1179.74580525 -0.34125673 C1192.54708907 -0.33813721 1205.34832548 -0.34848904 1218.1495983 -0.36439849 C1230.72420425 -0.37974877 1243.29874435 -0.38093431 1255.87335254 -0.36685025 C1262.60542471 -0.35970272 1269.33732321 -0.35944527 1276.06938311 -0.37641034 C1282.18497503 -0.39169724 1288.30026969 -0.38881852 1294.41585229 -0.37100006 C1296.62290905 -0.36783142 1298.8299879 -0.37147214 1301.03701942 -0.38249181 C1304.02013627 -0.39642467 1307.00218906 -0.38594726 1309.98526764 -0.36914349 C1310.84546646 -0.37906086 1311.70566528 -0.38897823 1312.59193074 -0.39919613 C1317.9557118 -0.33502952 1320.97609158 0.58809599 1325.24333215 4.12880117 C1330.98003807 10.48569151 1330.48580808 16.12348478 1330.55583215 24.31630117 C1330.59933801 25.98402578 1330.59933801 25.98402578 1330.64372277 27.68544179 C1330.69744857 34.66566308 1330.06646123 39.22908039 1326.24333215 45.12880117 C1320.34938466 49.81990223 1315.68369566 50.2746331 1308.38170189 50.25645167 C1307.45849681 50.25810245 1306.53529173 50.25975322 1305.58411075 50.26145403 C1302.45536961 50.26580685 1299.3266749 50.26296902 1296.19793248 50.26022893 C1293.93655932 50.26187725 1291.67518644 50.26396291 1289.41381404 50.26644903 C1283.14896949 50.27204245 1276.88413854 50.27133841 1270.61929228 50.26967144 C1264.5227374 50.26901828 1258.42618721 50.27304481 1252.32963384 50.27693546 C1239.70110382 50.28481988 1227.07257663 50.28789806 1214.44404435 50.2883814 C1201.63998042 50.28888326 1188.83591966 50.29152482 1176.03185678 50.29678899 C1174.82037457 50.29728419 1174.82037457 50.29728419 1173.58441797 50.2977894 C1170.29515164 50.29913934 1167.00588533 50.30050201 1163.71661902 50.3018815 C1124.74413522 50.31819729 1085.77165202 50.32457164 1046.79916539 50.32932937 C1027.39992827 50.33171105 1008.00069151 50.33541421 988.60145466 50.33936647 C926.4023283 50.35203159 864.20320194 50.36281584 802.00407431 50.36620693 C799.03036788 50.36636917 796.05666146 50.36653473 793.08295503 50.36670131 C787.11895633 50.36703511 781.15495762 50.36736559 775.19095892 50.36769587 C768.20829103 50.36808277 761.22562314 50.36847238 754.24295524 50.36886693 C752.24444514 50.36897935 750.24593503 50.36909077 748.24742492 50.36920119 C684.04344869 50.37275167 619.83948365 50.38783401 555.6355117 50.41113893 C509.51012258 50.42787486 463.38473557 50.44335319 417.25934339 50.44787389 C415.83720911 50.44801412 415.83720911 50.44801412 414.38634484 50.44815718 C393.57593128 50.45017599 372.76551775 50.45133223 351.95510409 50.45168577 C344.50919498 50.45182195 337.06328587 50.45203094 329.61737676 50.45227902 C327.76494439 50.45234058 325.91251201 50.4523989 324.06007964 50.45245397 C294.51365547 50.45337468 264.96724296 50.46335357 235.42082263 50.47791146 C205.67066916 50.4925111 175.92053001 50.49757942 146.17037359 50.48949191 C142.06325265 50.48837647 137.95613169 50.48736582 133.84901071 50.48641759 C133.04386997 50.48622762 132.23872924 50.48603766 131.40919031 50.48584193 C118.63848235 50.48310371 105.86780079 50.49046488 93.09709857 50.50199096 C80.55253549 50.5131043 68.00800988 50.51359064 55.46344624 50.50262077 C48.74750847 50.49704201 42.03167425 50.49662847 35.31573793 50.50912949 C29.21481806 50.52039166 23.11406626 50.51802933 17.01315248 50.50446242 C14.81139394 50.50201229 12.60962278 50.50466856 10.40787811 50.5128589 C7.43204774 50.52320732 4.45681792 50.51524902 1.4810099 50.50254732 C0.62290697 50.50995582 -0.23519596 50.51736432 -1.119302 50.52499731 C-6.76056358 50.47407575 -11.0729003 49.57670316 -15.4011991 45.62880117 C-20.62558998 38.91921556 -20.00484825 33.03634679 -20.06916785 24.81630117 C-20.09817176 23.59233632 -20.12717566 22.36837148 -20.15705848 21.10731679 C-20.23621124 9.91024457 -20.23621124 9.91024457 -15.75666785 5.12880117 C-10.36267497 0.37695029 -7.03267972 -0.01646532 0 0 Z " fill="#732271" transform="translate(155.75666785240173,513.8711988329887)"/>
<path d="M0 0 C1.18462326 -0.0071553 2.36924652 -0.01431061 3.58976746 -0.02168274 C4.90140869 -0.02437164 6.21304993 -0.02706055 7.56443787 -0.02983093 C8.95060396 -0.03609303 10.33676836 -0.0427396 11.72293091 -0.04974365 C15.50014202 -0.06718404 19.27734044 -0.07771496 23.05458188 -0.08594918 C25.4150313 -0.09109587 27.77547676 -0.09717194 30.13592339 -0.10346031 C37.52240348 -0.12252603 44.90887352 -0.13675081 52.2953735 -0.14507228 C60.81858734 -0.15483259 69.34154063 -0.18111453 77.86466271 -0.22157317 C84.45244138 -0.25176943 91.04014557 -0.26654471 97.62799209 -0.26985329 C101.56198317 -0.27220099 105.49569636 -0.28112358 109.42961311 -0.30631447 C113.13558915 -0.32966004 116.8411057 -0.33380272 120.54713631 -0.32355309 C122.54711475 -0.32282449 124.54707019 -0.34187303 126.54695129 -0.36161804 C134.20516197 -0.3174642 140.15196689 0.14838646 146.05422306 5.52375317 C151.31903907 11.30957908 151.86938953 17.51614027 151.94895935 24.94795227 C151.9603595 25.78376328 151.97175964 26.61957428 151.98350525 27.48071289 C152.00232605 29.24309792 152.01544161 31.00555208 152.0231781 32.76802063 C152.04258038 35.44189731 152.10467833 38.11268729 152.16770935 40.7858429 C152.35878205 56.24662821 152.35878205 56.24662821 147.13059998 62.77290344 C145.54270935 64.14717102 145.54270935 64.14717102 142.54270935 65.14717102 C142.54270935 65.80717102 142.54270935 66.46717102 142.54270935 67.14717102 C143.55333435 67.20904602 144.56395935 67.27092102 145.60520935 67.33467102 C150.20821392 68.02418992 153.20984233 69.96838581 156.54270935 73.14717102 C161.29772487 80.34591419 161.12615491 86.97300041 161.07395935 95.42842102 C161.0766596 96.81030042 161.08054643 98.19217795 161.08555603 99.5740509 C161.09142622 102.45879857 161.08296954 105.34304806 161.06419373 108.22773743 C161.04140456 111.9062542 161.05454119 115.58360329 161.07848358 119.26207733 C161.09300961 122.11220432 161.08830479 124.96205917 161.07797241 127.81219482 C161.07404578 129.82168851 161.08609103 131.83119323 161.09849548 133.84065247 C161.01294641 142.21926901 160.35687746 148.2270538 154.29270935 154.45967102 C146.02713527 159.53172784 138.55854825 159.57505328 129.08030701 159.51948547 C127.62425985 159.52191664 126.16821437 159.52563911 124.71217346 159.5305481 C120.77866392 159.53991127 116.84540517 159.53057313 112.9119153 159.51721597 C108.79156254 159.50586477 104.67122146 159.51001148 100.55085754 159.51196289 C93.63940856 159.51284411 86.72805799 159.50179653 79.81663513 159.48335266 C71.82077554 159.46213739 63.82505955 159.45868681 55.8291775 159.46491462 C48.13406323 159.47060154 40.43899963 159.46497382 32.74389267 159.45374107 C29.46880026 159.44909128 26.19373878 159.4482228 22.91864395 159.45032692 C19.0690329 159.45220557 15.21956883 159.44413882 11.3699913 159.42826653 C9.95500547 159.42401261 8.54000476 159.42318053 7.12501526 159.42595673 C5.19934931 159.42916274 3.27367473 159.41890096 1.34803772 159.40786743 C0.26886896 159.40581456 -0.8102998 159.40376169 -1.92217064 159.40164661 C-4.45729065 159.14717102 -4.45729065 159.14717102 -6.45729065 157.14717102 C-6.70617962 154.46755886 -6.70617962 154.46755886 -6.70452881 150.99102783 C-6.7087233 149.67711563 -6.71291779 148.36320343 -6.71723938 147.00947571 C-6.71175548 145.54487537 -6.70607248 144.08027576 -6.70021057 142.61567688 C-6.70128298 141.0800773 -6.70322105 139.54447812 -6.70596313 138.00888062 C-6.71082078 133.83133942 -6.70314469 129.65390462 -6.69301009 125.4763763 C-6.68424591 121.11261914 -6.68598671 116.74886548 -6.68637085 112.38510132 C-6.68543355 105.05699374 -6.67674026 97.7289275 -6.6631012 90.40083313 C-6.64736913 81.91659662 -6.64210325 73.43240539 -6.64283675 64.94815534 C-6.64344614 56.80028523 -6.63834922 48.65242995 -6.63004494 40.50456429 C-6.62650549 37.03048652 -6.62468075 33.556414 -6.62415123 30.08233452 C-6.62314999 25.99564506 -6.61707145 21.90899394 -6.60698509 17.82231712 C-6.60405321 16.31822189 -6.6028361 14.81412224 -6.60341263 13.31002426 C-6.60389994 11.26545557 -6.59765437 9.2208885 -6.59100342 7.17633057 C-6.58932757 6.02945235 -6.58765173 4.88257414 -6.5859251 3.70094204 C-6.3526792 -0.929673 -4.10670147 0.01694261 0 0 Z " fill="#762774" transform="translate(939.4572906494141,335.8528289794922)"/>
<path d="M0 0 C1.26442932 -0.00817749 2.52885864 -0.01635498 3.831604 -0.02478027 C7.99782229 -0.05079555 12.16404967 -0.06627835 16.33032227 -0.08056641 C17.7714291 -0.08593286 19.2125359 -0.09131038 20.65364265 -0.09669876 C26.64935534 -0.11828946 32.64506554 -0.13702544 38.64080715 -0.14832115 C47.20292077 -0.16456588 55.76458129 -0.19779963 64.3265242 -0.254722 C70.36584193 -0.29349363 76.40503875 -0.31296181 82.44447762 -0.31824172 C86.04369692 -0.32188276 89.64243064 -0.33377143 93.24151421 -0.36634445 C97.25763608 -0.40217878 101.27278745 -0.39803604 105.2890625 -0.390625 C106.4690834 -0.40703033 107.64910431 -0.42343567 108.86488342 -0.44033813 C116.85983686 -0.38004624 122.93195643 1.09676264 128.82672787 6.74186134 C132.62437363 11.07106492 133.33399113 14.36573575 133.34294128 19.9690094 C133.34933876 21.77569595 133.34933876 21.77569595 133.35586548 23.61888123 C133.35551596 24.95547489 133.35505443 26.29206852 133.35449219 27.62866211 C133.35748394 29.03470957 133.3608865 30.44075621 133.3646698 31.84680176 C133.37351029 35.66688889 133.37584787 39.48695362 133.37648559 43.30704999 C133.37743445 46.49320524 133.38111231 49.67935526 133.38465768 52.8655085 C133.39280168 60.37884755 133.39524189 67.89217462 133.39453125 75.40551758 C133.39392979 83.16552598 133.40449536 90.92546502 133.42027491 98.68545586 C133.43333008 105.34197142 133.43871603 111.99846425 133.43807584 118.65499252 C133.43782035 122.63338308 133.44069999 126.61171195 133.45125389 130.5900898 C133.46090144 134.32880867 133.46103723 138.06740643 133.45373726 141.80612946 C133.45268738 143.18080509 133.45507805 144.55548813 133.46109772 145.93015099 C133.46876322 147.8013244 133.46299829 149.67253871 133.45646667 151.54371643 C133.45701144 152.59250756 133.45755621 153.64129869 133.45811749 154.72187138 C133.20922852 157.19287109 133.20922852 157.19287109 131.20922852 159.19287109 C128.63995821 159.38016862 126.18048875 159.44861752 123.61157227 159.42333984 C122.48737633 159.42265251 122.48737633 159.42265251 121.34046936 159.42195129 C119.75593482 159.4189292 118.17140325 159.41104416 116.58691406 159.39868164 C114.15296993 159.38041793 111.7194059 159.37817199 109.28540039 159.37841797 C107.74828771 159.3735031 106.21117761 159.36767492 104.67407227 159.36083984 C103.94179916 159.35972702 103.20952606 159.3586142 102.45506287 159.35746765 C97.3252809 159.30892348 97.3252809 159.30892348 96.20922852 158.19287109 C96.11618834 156.71932761 96.09176586 155.24136519 96.09570312 153.76489258 C96.09582397 152.81078491 96.09594482 151.85667725 96.09606934 150.87365723 C96.1011853 149.86395874 96.10630127 148.85426025 96.11157227 147.81396484 C96.11257935 146.89103638 96.11358643 145.96810791 96.11462402 145.01721191 C96.11987358 141.55491908 96.13383471 138.0926439 96.14672852 134.63037109 C96.16735352 126.89599609 96.18797852 119.16162109 96.20922852 111.19287109 C65.84922852 111.19287109 35.48922852 111.19287109 4.20922852 111.19287109 C4.20922852 126.37287109 4.20922852 141.55287109 4.20922852 157.19287109 C1.20922852 160.19287109 1.20922852 160.19287109 -2.34423828 160.53344727 C-3.80957479 160.53297327 -5.27496575 160.51608151 -6.73999023 160.48583984 C-7.51260696 160.481595 -8.28522369 160.47735016 -9.08125305 160.47297668 C-11.54728141 160.45619292 -14.01249044 160.41854257 -16.47827148 160.38037109 C-18.15078572 160.36532381 -19.82331277 160.35163547 -21.49584961 160.33935547 C-25.59447226 160.30629056 -29.69248299 160.25451138 -33.79077148 160.19287109 C-33.86089164 141.53852352 -33.91377439 122.88420273 -33.946208 104.22975063 C-33.9616686 95.56791716 -33.98274269 86.90616564 -34.01708984 78.24438477 C-34.04701692 70.69366798 -34.06635235 63.14301055 -34.07303697 55.5922361 C-34.07694363 51.59514743 -34.08610795 47.59822856 -34.10796165 43.60119438 C-34.12837914 39.83621081 -34.13459472 36.0714664 -34.13009453 32.30643272 C-34.13091738 30.92739816 -34.13685178 29.5483553 -34.14838791 28.16936874 C-34.21715472 19.52244154 -34.25655912 13.20588835 -28.41577148 6.44287109 C-19.92642402 -0.83371245 -10.69732174 0.03855186 0 0 Z " fill="#7A2B77" transform="translate(387.790771484375,333.80712890625)"/>
<path d="M0 0 C1.95275597 -0.01292336 1.95275597 -0.01292336 3.94496155 -0.02610779 C7.49683357 -0.04850573 11.04825796 -0.04568449 14.60017347 -0.03678632 C17.57460058 -0.03165527 20.54894512 -0.03898625 23.52336371 -0.04625839 C30.54576071 -0.06322765 37.56794027 -0.05972259 44.59033203 -0.04296875 C51.81368503 -0.02605727 59.03643326 -0.04187479 66.25972021 -0.07419163 C72.48083833 -0.10096126 78.70176905 -0.10814354 84.92293894 -0.09967655 C88.62998989 -0.09476782 92.33667737 -0.09685008 96.0436821 -0.11746407 C100.18184386 -0.13937629 104.31887355 -0.12033979 108.45703125 -0.09765625 C109.67085983 -0.10934845 110.88468842 -0.12104065 112.13529968 -0.13308716 C120.32277156 -0.04205447 127.34319541 1.37691984 133.54018211 7.08225155 C137.31679557 11.39507652 137.98290968 14.78731501 137.9848938 20.35427856 C137.98771362 21.56859558 137.99053345 22.7829126 137.99343872 24.0340271 C137.99149439 25.38165298 137.98944622 26.72927871 137.98730469 28.0769043 C137.98865952 29.49442591 137.99043991 30.91194718 137.99261475 32.32946777 C137.99717853 36.18048288 137.99540406 40.03147124 137.99223566 43.88248682 C137.98970762 47.90724416 137.99205075 51.93199917 137.99362183 55.95675659 C137.9954418 62.71393242 137.99304128 69.47109732 137.98828125 76.22827148 C137.98283456 84.0507638 137.98460493 91.87323006 137.99010766 99.69572175 C137.99463844 106.40402485 137.99528964 113.11232009 137.99266899 119.82062423 C137.99110658 123.83082054 137.99091153 127.84100458 137.99420547 131.8512001 C137.99708383 135.6186165 137.99510917 139.38599913 137.98931122 143.15341187 C137.98798362 144.53979308 137.98837774 145.92617711 137.99057388 147.31255722 C137.99328523 149.19723157 137.98929071 151.08191209 137.9848938 152.96658325 C137.98432826 154.55221416 137.98432826 154.55221416 137.9837513 156.16987801 C137.85791016 158.53344727 137.85791016 158.53344727 136.85791016 159.53344727 C134.19189476 159.62199074 131.55121616 159.64876626 128.88525391 159.63110352 C128.17856567 159.63009644 127.47187744 159.62908936 126.74377441 159.62805176 C124.09430324 159.62280472 121.44485513 159.60884355 118.79541016 159.59594727 C112.87603516 159.57532227 106.95666016 159.55469727 100.85791016 159.53344727 C100.52791016 144.02344727 100.19791016 128.51344727 99.85791016 112.53344727 C69.82791016 112.20344727 39.79791016 111.87344727 8.85791016 111.53344727 C8.89751806 126.95619413 8.89751806 126.95619413 8.94799805 142.37890625 C8.95091707 144.30411728 8.95346566 146.22932892 8.95556641 148.15454102 C8.96068237 149.1642395 8.96579834 150.17393799 8.97106934 151.2142334 C8.97125061 152.6453949 8.97125061 152.6453949 8.97143555 154.10546875 C8.97365616 154.93819809 8.97587677 155.77092743 8.97816467 156.62889099 C8.85791016 158.53344727 8.85791016 158.53344727 7.85791016 159.53344727 C5.28771531 159.64676819 2.74539538 159.69762212 0.17431641 159.70141602 C-0.59638687 159.70474442 -1.36709015 159.70807281 -2.16114807 159.71150208 C-3.79451906 159.71657437 -5.42790044 159.71891031 -7.0612793 159.71875 C-9.56560284 159.72093506 -12.06948505 159.73908322 -14.57373047 159.75805664 C-16.15771333 159.76099074 -17.74169829 159.76297543 -19.32568359 159.76391602 C-20.07780624 159.77110153 -20.82992889 159.77828705 -21.60484314 159.78569031 C-26.91326705 159.76227006 -26.91326705 159.76227006 -29.14208984 157.53344727 C-29.39656544 155.10485554 -29.39656544 155.10485554 -29.40278625 151.98713684 C-29.40987106 150.80810791 -29.41695587 149.62907898 -29.42425537 148.4143219 C-29.42177795 147.11405563 -29.41930054 145.81378937 -29.41674805 144.47412109 C-29.42109358 143.096036 -29.4262762 141.71795333 -29.43223572 140.33987427 C-29.44565938 136.58961521 -29.44620029 132.83945673 -29.44367242 129.08917832 C-29.4426042 125.95821591 -29.44748264 122.82727398 -29.45227784 119.69631594 C-29.46338632 112.30599201 -29.46380402 104.91571888 -29.45776367 97.52539062 C-29.45173231 89.9069006 -29.46401041 82.28859566 -29.48533374 74.67013723 C-29.50296933 68.12820377 -29.50894771 61.58632909 -29.505696 55.04437274 C-29.50388488 51.13788147 -29.50650137 47.23152198 -29.52041054 43.32505226 C-29.53301488 39.64701033 -29.53102035 35.96925549 -29.51799965 32.2912178 C-29.51451727 30.30420937 -29.52579488 28.31719207 -29.53756714 26.33021545 C-29.49116172 18.43669635 -29.05642473 13.11391584 -23.95458984 6.84594727 C-16.1823648 0.45545111 -9.78134896 -0.05241243 0 0 Z " fill="#792A77" transform="translate(769.14208984375,333.466552734375)"/>
<path d="M0 0 C0.7322731 0.00202423 1.4645462 0.00404846 2.2190094 0.00613403 C2.96751663 0.00517731 3.71602386 0.00422058 4.48721313 0.00323486 C6.07351261 0.00255307 7.65981486 0.00440731 9.24610901 0.00857544 C11.67789474 0.01391629 14.10949513 0.00863434 16.54127502 0.00222778 C18.07968689 0.00288871 19.61809864 0.00417018 21.1565094 0.00613403 C21.88675827 0.0041098 22.61700714 0.00208557 23.36938477 0 C28.52425229 0.02398985 28.52425229 0.02398985 30.75416565 1.13894653 C30.75416565 41.39894653 30.75416565 81.65894653 30.75416565 123.13894653 C43.95416565 123.13894653 57.15416565 123.13894653 70.75416565 123.13894653 C70.75416565 94.75894653 70.75416565 66.37894653 70.75416565 37.13894653 C82.30416565 37.13894653 93.85416565 37.13894653 105.75416565 37.13894653 C109.07778513 41.57043917 109.16967171 43.89355962 109.09474182 49.12039185 C109.09539894 50.32095718 109.09539894 50.32095718 109.09606934 51.54577637 C109.09398237 54.18645781 109.07065595 56.82650125 109.0471344 59.46707153 C109.04153811 61.29981133 109.03726817 63.13255562 109.03427124 64.96530151 C109.02282504 69.78555728 108.99335976 74.60554122 108.9601593 79.4256897 C108.92405355 85.21095157 108.9102962 90.9963044 108.89279938 96.78164673 C108.8637223 105.5676023 108.8062336 114.35296161 108.75416565 123.13894653 C121.62416565 123.13894653 134.49416565 123.13894653 147.75416565 123.13894653 C147.74892883 119.44844116 147.74369202 115.75793579 147.73829651 111.95559692 C147.72176384 99.79382852 147.7106449 87.6320609 147.70235348 75.47028446 C147.69719057 68.09298697 147.69014798 60.7157001 147.6787262 53.33840942 C147.66877919 46.91062473 147.66231218 40.48284773 147.66007715 34.05505556 C147.65877008 30.64955375 147.6556844 27.24407395 147.64843559 23.83857918 C147.64122959 20.04293612 147.64017452 16.24733941 147.64064026 12.45169067 C147.63704498 11.31449585 147.63344971 10.17730103 147.62974548 9.00564575 C147.63112015 7.97774429 147.63249481 6.94984283 147.63391113 5.89079285 C147.63252844 4.54267061 147.63252844 4.54267061 147.63111782 3.16731358 C147.75416565 1.13894653 147.75416565 1.13894653 148.75416565 0.13894653 C151.4931065 0.05036008 154.20669835 0.02371174 156.9455719 0.04129028 C157.76541061 0.04270523 158.58524933 0.04412018 159.42993164 0.045578 C162.05887947 0.05119364 164.68774338 0.06374874 167.31666565 0.07644653 C169.09465921 0.08145952 170.87265411 0.08602278 172.65065002 0.09011841 C177.0185211 0.10116815 181.38632913 0.11844322 185.75416565 0.13894653 C185.82431137 18.51525828 185.87718106 36.89153518 185.90960217 55.26795197 C185.92505736 63.80084209 185.94612106 72.33364893 185.98048401 80.8664856 C186.01042768 88.30551062 186.02975045 95.74447532 186.03643113 103.18355894 C186.04033499 107.12087697 186.04948136 111.05802242 186.07135582 114.99528503 C186.0917996 118.70528067 186.09798362 122.4150335 186.09348869 126.12508011 C186.09470058 128.12744502 186.11080127 130.12978382 186.12742615 132.13208008 C186.09408235 141.88141475 184.83183923 149.06127296 177.75416565 156.13894653 C173.40816625 158.72813653 170.19236136 159.52142042 165.15724182 159.55886841 C163.8653746 159.57478027 162.57350739 159.59069214 161.24249268 159.60708618 C159.84404048 159.6083538 158.44558692 159.60853007 157.0471344 159.60769653 C155.59753122 159.61480694 154.14793082 159.62250721 152.69833374 159.63076782 C149.66470006 159.64418573 146.63132648 159.6457943 143.59767151 159.6399231 C139.73076957 159.63403786 135.86512792 159.66458012 131.99846935 159.70503998 C129.00505987 159.73103257 126.01194891 159.7337839 123.01844215 159.73014832 C121.59402113 159.73182968 120.16958483 159.74137652 118.7452755 159.7592926 C110.2749738 159.85410026 103.58436419 159.5251909 96.75416565 154.13894653 C94.5627594 151.78738403 94.5627594 151.78738403 93.19166565 149.51394653 C92.71600159 148.75855591 92.24033752 148.00316528 91.7502594 147.22488403 C90.75416565 145.13894653 90.75416565 145.13894653 90.75416565 142.13894653 C90.09416565 142.13894653 89.43416565 142.13894653 88.75416565 142.13894653 C88.56854065 142.96394653 88.38291565 143.78894653 88.19166565 144.63894653 C85.86494983 150.30399374 82.35624168 154.61033266 77.05201721 157.72634888 C71.00219527 160.21677019 64.27338957 159.59021678 57.8440094 159.57254028 C56.38864906 159.5771074 54.93329088 159.58241454 53.47793579 159.58842468 C50.43768004 159.59732883 47.39768739 159.59496241 44.35743713 159.58499146 C40.47137062 159.57348488 36.58621054 159.59375164 32.70026302 159.62290859 C29.69840788 159.64129455 26.69676925 159.6409738 23.6948719 159.63527107 C22.26240832 159.63511826 20.8299297 159.64112974 19.39752007 159.65356255 C17.3926738 159.66851913 15.38767748 159.65514144 13.38282776 159.64065552 C12.24478195 159.64048935 11.10673615 159.64032318 9.9342041 159.64015198 C4.71675651 158.81783075 1.61960153 156.02405141 -1.99583435 152.32644653 C-7.20814916 144.94233389 -6.5267523 137.15111507 -6.48875427 128.41677856 C-6.48982841 127.02822276 -6.49176905 125.63966741 -6.49450684 124.25111389 C-6.49933461 120.49740402 -6.49172742 116.74381389 -6.48155379 112.9901185 C-6.47274803 109.06014557 -6.47453117 105.1301761 -6.47491455 101.20019531 C-6.47397962 94.60814415 -6.46531523 88.01613919 -6.4516449 81.42410278 C-6.43588208 73.79465678 -6.43064823 66.1652612 -6.43138045 58.5358001 C-6.43198973 51.19683196 -6.42689597 43.85788028 -6.41858864 36.51891708 C-6.41505161 33.39372504 -6.41322481 30.26853882 -6.41269493 27.14334488 C-6.41169388 23.47107903 -6.40561693 19.79885586 -6.39552879 16.12660408 C-6.39119396 14.12895774 -6.39177699 12.13130265 -6.39247131 10.13365173 C-6.38820633 8.95599747 -6.38394135 7.7783432 -6.37954712 6.56500244 C-6.37787127 5.53523348 -6.37619543 4.50546452 -6.3744688 3.44449043 C-6.13132888 -0.91336039 -3.80805799 0.0178049 0 0 Z " fill="#782A76" transform="translate(142.24583435058594,333.8610534667969)"/>
<path d="M0 0 C1.65881398 -0.00417633 3.3176251 -0.00965549 4.97643095 -0.01631981 C9.52028058 -0.03075374 14.06394851 -0.02653612 18.60780799 -0.019153 C23.51383464 -0.01441858 28.41982213 -0.02693357 33.32583618 -0.03717041 C42.93130528 -0.05435807 52.53670896 -0.05519852 62.14218944 -0.04995751 C69.94986728 -0.0459147 77.75752579 -0.04736068 85.56520271 -0.05270576 C87.23258558 -0.0538284 87.23258558 -0.0538284 88.93365296 -0.05497371 C91.19189584 -0.0565052 93.45013872 -0.05804355 95.7083816 -0.05958868 C116.88087878 -0.07331348 138.053339 -0.06787605 159.22583533 -0.05640347 C178.59225752 -0.04646999 197.95858418 -0.05941379 217.32499164 -0.08333766 C237.21581307 -0.10772404 257.10659001 -0.11733773 276.99742609 -0.11068493 C288.16249626 -0.10719184 299.32749294 -0.10943084 310.4925518 -0.12693596 C319.99653946 -0.1416521 329.50040189 -0.14230096 339.00438707 -0.12486505 C343.85222981 -0.1163481 348.69984878 -0.11422259 353.5476799 -0.1295166 C357.98838886 -0.14335269 362.42868211 -0.13861442 366.86936695 -0.11927737 C368.47289795 -0.11551376 370.07646215 -0.11844974 371.67996358 -0.12888902 C390.4921247 -0.24262068 390.4921247 -0.24262068 397.35866874 5.83494097 C402.06354912 11.18747993 403.20591334 15.54278541 403.020401 22.5087738 C402.44213296 28.11645206 400.82374348 32.22298037 396.86484355 36.30342895 C389.10887527 42.45175114 381.53148064 42.36753432 372.0788269 42.25637817 C370.39225361 42.26230165 368.70568879 42.27128721 367.01914614 42.28305465 C362.40303449 42.30639214 357.78799417 42.28626128 353.17194331 42.25877559 C348.18689621 42.23672534 343.20197436 42.25513292 338.21691895 42.2684021 C328.45939027 42.28795114 318.70227211 42.27011753 308.94478587 42.23943856 C297.58163267 42.20501599 286.21857162 42.20683042 274.85537728 42.20991705 C254.58258147 42.21410616 234.30997827 42.18413811 214.0372467 42.13548279 C194.36434976 42.08828669 174.69164525 42.06705636 155.01869202 42.07395935 C130.17342134 42.08262056 105.32826841 42.06841434 80.48301867 42.03520697 C72.56131364 42.02529381 64.6396306 42.02356264 56.7179203 42.02455711 C47.06708792 42.02531427 37.41640725 42.01117013 27.76562885 41.97827794 C22.84120935 41.961795 17.91699682 41.95163267 12.9925499 41.95870972 C8.48539511 41.96497395 3.97868275 41.95277912 -0.52839211 41.92578659 C-2.1594186 41.91923146 -3.79048881 41.91940613 -5.42151096 41.92696425 C-7.63859424 41.9362132 -9.85421642 41.9208696 -12.07118511 41.89942455 C-13.3025135 41.89714893 -14.53384189 41.8948733 -15.80248326 41.89252871 C-21.48504033 41.0667259 -26.00621642 38.32636828 -29.651474 33.82518005 C-30.37463806 32.95699646 -30.37463806 32.95699646 -31.1124115 32.0712738 C-33.62861811 28.43206223 -33.47169501 24.86163619 -33.526474 20.57518005 C-33.56514587 18.77113708 -33.56514587 18.77113708 -33.604599 16.9306488 C-33.14930359 12.01454237 -31.57993656 8.72947975 -28.151474 5.20018005 C-19.28793818 -0.38770122 -10.09847072 -0.04137969 0 0 Z " fill="#792B78" transform="translate(643.2764739990234,271.61231994628906)"/>
<path d="M0 0 C1.17637024 -0.00419449 2.35274048 -0.00838898 3.5647583 -0.01271057 C5.47967323 -0.00428131 5.47967323 -0.00428131 7.43327332 0.00431824 C8.80197744 0.0032444 10.17068112 0.00130422 11.53938293 -0.00143433 C15.24356734 -0.00626737 18.94763063 0.00135203 22.65180039 0.01151872 C26.52839404 0.02031716 30.4049841 0.01854147 34.28158569 0.01815796 C40.78545657 0.01909331 47.28928066 0.02776282 53.7931366 0.04142761 C61.32088322 0.05718479 68.84857876 0.06242452 76.37634069 0.06169206 C83.61546083 0.06108275 90.85456429 0.06617718 98.09367943 0.07448387 C101.17700518 0.07802124 104.26032504 0.07984775 107.34365273 0.08037758 C110.96747979 0.0813787 114.59126363 0.08745624 118.21507645 0.09754372 C120.18649096 0.10187849 122.15791434 0.10129553 124.1293335 0.1006012 C125.29160461 0.10486618 126.45387573 0.10913116 127.65136719 0.11352539 C128.66768628 0.11520123 129.68400537 0.11687708 130.73112202 0.11860371 C133.00822449 0.24723816 133.00822449 0.24723816 134.00822449 1.24723816 C134.10825738 3.38076989 134.13903496 5.51761358 134.14103699 7.65348816 C134.14232605 8.95415222 134.14361511 10.25481628 134.14494324 11.59489441 C134.14284851 12.27568054 134.14075378 12.95646667 134.13859558 13.65788269 C134.13324689 15.73852331 134.13854129 17.81894805 134.14494324 19.89958191 C134.14300964 21.850578 134.14300964 21.850578 134.14103699 23.84098816 C134.13990906 25.044328 134.13878113 26.24766785 134.13761902 27.48747253 C134.00822449 30.24723816 134.00822449 30.24723816 133.00822449 31.24723816 C131.4773661 31.34305638 129.94208693 31.36911924 128.40823364 31.36749268 C126.91686638 31.36955467 126.91686638 31.36955467 125.39537048 31.37165833 C124.29557861 31.36806305 123.19578674 31.36446777 122.06266785 31.36076355 C120.91160049 31.36090958 119.76053314 31.3610556 118.57458496 31.36120605 C114.74906057 31.36050634 110.92358417 31.35271118 107.09806824 31.34489441 C104.45390856 31.34303044 101.80974853 31.34160644 99.16558838 31.34060669 C92.90407031 31.33749365 86.64256963 31.32928064 80.38105923 31.3192572 C73.25420911 31.30809521 66.12735819 31.3025854 59.00050151 31.29756176 C44.33639892 31.287098 29.67231515 31.26875286 15.00822449 31.24723816 C15.00822449 42.13723816 15.00822449 53.02723816 15.00822449 64.24723816 C18.38419861 64.22629089 21.76017273 64.20534363 25.2384491 64.1837616 C36.40625457 64.1174129 47.57407554 64.07306717 58.74202633 64.03998947 C65.51160703 64.01940416 72.28100039 63.99136141 79.05046082 63.94548035 C85.58622086 63.90120451 92.12185958 63.87808426 98.65776253 63.86772919 C101.14837769 63.86035184 103.63898251 63.84594564 106.12951469 63.82431793 C109.62439136 63.79518198 113.11847006 63.79128657 116.6134491 63.7931366 C117.63772507 63.77875549 118.66200104 63.76437439 119.71731567 63.7495575 C127.11763221 63.79180522 133.43447906 65.1784785 139.16447449 70.09880066 C139.60791199 70.68403503 140.05134949 71.26926941 140.50822449 71.87223816 C140.97228699 72.46262878 141.43634949 73.05301941 141.91447449 73.66130066 C144.29144923 77.10791403 144.15161649 79.63612084 144.18522644 83.80485535 C144.19179764 84.47825958 144.19836884 85.15166382 144.20513916 85.84547424 C144.22487979 88.078355 144.23653766 90.3111684 144.24650574 92.54411316 C144.25058126 93.30706947 144.25465679 94.07002579 144.25885582 94.85610199 C144.27972193 98.89598317 144.29402008 102.93583036 144.3033905 106.97575378 C144.31444349 111.1432355 144.34882839 115.31018158 144.3885622 119.47747421 C144.41474615 122.68602979 144.42308398 125.89445825 144.42667198 129.10311127 C144.43153505 130.6388688 144.44314118 132.17462077 144.46170998 133.71027374 C144.48613618 135.86462405 144.48513082 138.01759561 144.47819519 140.17204285 C144.48406143 141.39622925 144.48992767 142.62041565 144.49597168 143.88169861 C143.74852676 149.03919714 140.98618403 152.83814508 136.94572449 156.05973816 C132.76441503 159.17347924 129.96599902 159.37250609 124.88368225 159.3742218 C122.96123688 159.37845154 122.96123688 159.37845154 120.99995422 159.38276672 C119.57676683 159.38082238 118.15357957 159.3787742 116.73039246 159.37663269 C115.23405413 159.37798745 113.73771614 159.37976781 112.24137878 159.38194275 C108.17549496 159.38650735 104.10963647 159.38473171 100.04375219 159.38156366 C95.79477716 159.379036 91.54580434 159.38137865 87.29682922 159.38294983 C80.16302602 159.38476993 73.02923316 159.38236896 65.89543152 159.37760925 C57.63668708 159.37216277 49.37796732 159.37393273 41.11922348 159.37943566 C34.03725055 159.38396634 26.95528507 159.38461768 19.87331116 159.38199699 C15.63954967 159.3804345 11.40579979 159.38023976 7.17203903 159.38353348 C3.19450468 159.38641168 -0.78299769 159.38443745 -4.76052856 159.37863922 C-6.22431256 159.37731153 -7.68809922 159.3777059 -9.15188217 159.37990189 C-11.14165402 159.38261289 -13.13143172 159.37861901 -15.12120056 159.3742218 C-16.79532359 159.37365626 -16.79532359 159.37365626 -18.50326729 159.3730793 C-20.99177551 159.24723816 -20.99177551 159.24723816 -21.99177551 158.24723816 C-22.09173645 156.19841619 -22.12258497 154.14615247 -22.12458801 152.09489441 C-22.12587708 150.84385925 -22.12716614 149.5928241 -22.12849426 148.30387878 C-22.12462708 146.98581238 -22.12075989 145.66774597 -22.11677551 144.30973816 C-22.1206427 142.99553894 -22.12450989 141.68133972 -22.12849426 140.32731628 C-22.1272052 139.07499207 -22.12591614 137.82266785 -22.12458801 136.53239441 C-22.12289612 134.79808167 -22.12289612 134.79808167 -22.12117004 133.0287323 C-21.99177551 130.24723816 -21.99177551 130.24723816 -20.99177551 128.24723816 C21.24822449 128.24723816 63.48822449 128.24723816 107.00822449 128.24723816 C107.00822449 117.35723816 107.00822449 106.46723816 107.00822449 95.24723816 C101.84552917 95.27865906 101.84552917 95.27865906 96.57853699 95.31071472 C85.19918286 95.3770323 73.81980184 95.42139666 62.44030762 95.45448685 C55.54178492 95.4750816 48.64344576 95.5031426 41.74504089 95.54899597 C35.08605937 95.59323667 28.42730778 95.61638497 21.76817322 95.62674713 C19.22928367 95.63413045 16.69040439 95.64854831 14.15159607 95.67015839 C10.59185864 95.69924988 7.03290567 95.70319158 3.47306824 95.70133972 C2.42649551 95.71572083 1.37992279 95.73010193 0.30163574 95.74491882 C-5.97125954 95.70967294 -10.77612451 94.89147223 -15.99177551 91.24723816 C-20.75504274 86.23327265 -22.23854293 82.43554397 -22.28230286 75.55436707 C-22.28902008 74.89042435 -22.2957373 74.22648163 -22.30265808 73.54241943 C-22.32161812 71.3528032 -22.32556123 69.16349382 -22.32771301 66.97380066 C-22.33414247 65.44689306 -22.34087094 63.91998669 -22.34788513 62.39308167 C-22.35985298 59.19372197 -22.36356648 55.99447022 -22.36238098 52.79508972 C-22.36217785 48.70384869 -22.38947576 44.61330273 -22.4239254 40.52222633 C-22.44620943 37.36855415 -22.45021807 34.21504884 -22.44916153 31.061306 C-22.45151539 29.55347168 -22.4603269 28.04563262 -22.47582626 26.53787613 C-22.49551776 24.42439451 -22.48963779 22.31240618 -22.47761536 20.19889832 C-22.48046539 18.99850922 -22.48331543 17.79812012 -22.48625183 16.56135559 C-21.6886733 11.21576307 -18.94109943 8.15528712 -15.11677551 4.49723816 C-10.25984236 1.00024629 -5.92857464 -0.00317195 0 0 Z " fill="#782976" transform="translate(569.9917755126953,333.7527618408203)"/>
<path d="M0 0 C1.27177094 -0.00426498 2.54354187 -0.00852997 3.85385132 -0.01292419 C5.2660065 -0.01257468 6.67816166 -0.01211314 8.09031677 -0.0115509 C9.57518092 -0.0145425 11.06004428 -0.01794503 12.54490662 -0.02172852 C16.57986269 -0.0305706 20.61479757 -0.03290666 24.64976239 -0.0335443 C28.01486115 -0.03449303 31.37995495 -0.03817074 34.7450518 -0.0417164 C42.68029241 -0.04986103 50.61552168 -0.05230055 58.55076599 -0.05158997 C66.74702545 -0.05098851 74.94321923 -0.06155373 83.13946205 -0.07733363 C90.16964738 -0.09038815 97.19981118 -0.09577478 104.23000854 -0.09513456 C108.4319632 -0.09487904 112.63385945 -0.09775991 116.83580208 -0.10831261 C120.78463749 -0.11795905 124.73335823 -0.1180967 128.68219757 -0.11079597 C130.13427586 -0.10974595 131.58636116 -0.1121376 133.03842735 -0.11815643 C135.01469903 -0.12581996 136.99100942 -0.12005792 138.96728516 -0.11352539 C140.07507104 -0.11407016 141.18285692 -0.11461493 142.32421207 -0.1151762 C144.92015076 0.13371277 144.92015076 0.13371277 146.92015076 2.13371277 C147.14720154 4.83927917 147.14720154 4.83927917 147.11546326 8.23527527 C147.10579529 10.05285339 147.10579529 10.05285339 147.09593201 11.90715027 C147.07079529 13.81367371 147.07079529 13.81367371 147.04515076 15.75871277 C147.03612732 17.03746277 147.02710388 18.31621277 147.01780701 19.63371277 C146.99417379 22.80056444 146.96122704 25.96704701 146.92015076 29.13371277 C143.71164316 31.02499518 141.3596809 31.38160028 137.65568542 31.3742218 C136.05716232 31.37834579 136.05716232 31.37834579 134.42634583 31.3825531 C132.6806279 31.37176727 132.6806279 31.37176727 130.89964294 31.36076355 C129.05534195 31.36120163 129.05534195 31.36120163 127.17378235 31.36164856 C123.80626171 31.3604943 120.43898655 31.35046673 117.07150936 31.33650064 C113.55078798 31.32399462 110.03006329 31.32282289 106.50932312 31.32044983 C99.84413977 31.31423468 93.17902207 31.2978234 86.51386762 31.27775085 C78.92505304 31.25539293 71.33623531 31.24439869 63.74739599 31.23435998 C48.13826977 31.21345719 32.52923395 31.17678053 16.92015076 31.13371277 C17.25015076 41.69371277 17.58015076 52.25371277 17.92015076 63.13371277 C21.94855164 63.16344177 21.94855164 63.16344177 26.05833435 63.19377136 C34.91530979 63.26057244 43.77216605 63.33821315 52.62900352 63.42123985 C58.00076574 63.47126124 63.37250772 63.5175906 68.74436951 63.55558777 C73.92508191 63.59236695 79.10562741 63.63870648 84.28619766 63.69177628 C86.2661866 63.71035952 88.24621137 63.72545282 90.22625351 63.73705673 C92.99207025 63.75385218 95.75750142 63.78287037 98.5231781 63.81486511 C99.34820328 63.8170253 100.17322845 63.81918549 101.02325439 63.82141113 C106.69204643 63.90560845 106.69204643 63.90560845 108.92015076 66.13371277 C109.14720154 68.83927917 109.14720154 68.83927917 109.11546326 72.23527527 C109.10579529 74.05285339 109.10579529 74.05285339 109.09593201 75.90715027 C109.07079529 77.81367371 109.07079529 77.81367371 109.04515076 79.75871277 C109.03612732 81.03746277 109.02710388 82.31621277 109.01780701 83.63371277 C108.99417379 86.80056444 108.96122704 89.96704701 108.92015076 93.13371277 C105.67168801 94.75794414 102.09458956 94.31412049 98.5231781 94.33903503 C97.65481827 94.34893463 96.78645844 94.35883423 95.89178467 94.36903381 C93.01324721 94.40069435 90.13469322 94.42542422 87.25608826 94.45011902 C85.26354028 94.47068462 83.27099671 94.49168098 81.27845764 94.51309204 C76.02760884 94.56835344 70.7767204 94.61774476 65.52580261 94.66593933 C60.17023684 94.71612468 54.8147288 94.77182621 49.45921326 94.82707214 C38.94623986 94.93470348 28.43321756 95.03562782 17.92015076 95.13371277 C17.92015076 105.69371277 17.92015076 116.25371277 17.92015076 127.13371277 C21.75688416 127.1535321 25.59361755 127.17335144 29.5466156 127.19377136 C42.19539075 127.26055155 54.84408048 127.33809158 67.4927578 127.42123985 C75.16482413 127.47140883 82.83687955 127.51785113 90.50901794 127.55558777 C97.19433342 127.58847994 103.87956522 127.62829557 110.56478846 127.67650282 C114.10612493 127.7017956 117.6474057 127.72356851 121.18880844 127.73705673 C125.13760552 127.75222611 129.08619855 127.78284955 133.03489685 127.81486511 C134.21525009 127.8170253 135.39560333 127.81918549 136.61172485 127.82141113 C137.68307175 127.83257462 138.75441864 127.8437381 139.85823059 127.85523987 C140.79292868 127.86077063 141.72762676 127.86630138 142.69064903 127.87199974 C144.92015076 128.13371277 144.92015076 128.13371277 146.92015076 130.13371277 C147.14720154 132.83927917 147.14720154 132.83927917 147.11546326 136.23527527 C147.10579529 138.05285339 147.10579529 138.05285339 147.09593201 139.90715027 C147.07079529 141.81367371 147.07079529 141.81367371 147.04515076 143.75871277 C147.03612732 145.03746277 147.02710388 146.31621277 147.01780701 147.63371277 C146.99417379 150.80056444 146.96122704 153.96704701 146.92015076 157.13371277 C143.51572082 159.19240667 140.87251298 159.39067114 136.92573547 159.40786743 C135.69780777 159.41784256 134.46988007 159.42781769 133.20474243 159.43809509 C131.84669508 159.43899087 130.48864755 159.43965445 129.13059998 159.44010925 C127.69797331 159.44773237 126.26535074 159.45616013 124.83273315 159.46533203 C120.94191889 159.48727594 117.05118324 159.4960764 113.16031408 159.50115848 C110.72662394 159.50480384 108.29295432 159.51104501 105.859272 159.51815987 C97.36035002 159.5426593 88.86148905 159.55570618 80.36253357 159.55924988 C72.45540138 159.56287991 64.54865861 159.59273553 56.64164531 159.63465446 C49.84314971 159.66942562 43.04478264 159.68479954 36.24619877 159.68549591 C32.19029999 159.68628677 28.13479742 159.69493554 24.07899094 159.72349358 C20.25879216 159.74978998 16.43931469 159.75181591 12.61906624 159.73583794 C11.22354743 159.73403224 9.82798606 159.74063418 8.43255806 159.75665665 C-0.00344314 159.84754608 -7.1241103 159.31014625 -14.07984924 154.13371277 C-18.5731851 148.73785752 -20.19495848 143.82326214 -20.22702026 136.84715271 C-20.23417557 135.77620361 -20.24133087 134.70525452 -20.248703 133.60185242 C-20.25139191 132.43190735 -20.25408081 131.26196228 -20.2568512 130.05656433 C-20.26670799 128.20227814 -20.26670799 128.20227814 -20.27676392 126.31053162 C-20.29649238 122.21513119 -20.30816189 118.1197699 -20.31813049 114.02433777 C-20.32217984 112.61169668 -20.32629682 111.19905579 -20.33048058 109.7864151 C-20.34952188 103.1485239 -20.36375507 96.51064374 -20.37209255 89.87273049 C-20.38186106 82.22285145 -20.40817468 74.57326206 -20.44859344 66.92348504 C-20.47880011 61.00230681 -20.49356572 55.0812114 -20.49687356 49.15995765 C-20.49921887 45.6272976 -20.50811103 42.09494736 -20.53333473 38.5623703 C-20.56104744 34.61763339 -20.55677037 30.67327465 -20.54981995 26.72843933 C-20.56263 25.56659119 -20.57544006 24.40474304 -20.58863831 23.20768738 C-20.54075213 15.74438841 -19.74393031 9.8450723 -14.26344299 4.29386902 C-13.68723206 3.93164246 -13.11102112 3.56941589 -12.51734924 3.19621277 C-11.64916565 2.62580261 -11.64916565 2.62580261 -10.76344299 2.04386902 C-7.11489078 0.07144984 -4.06844342 0.00615259 0 0 Z " fill="#742571" transform="translate(1146.079849243164,335.8662872314453)"/>
<path d="M0 0 C1.27589493 -0.00701431 2.55178986 -0.01402863 3.86634827 -0.02125549 C5.26761023 -0.01382905 6.66887061 -0.00609795 8.07012939 0.00190735 C9.55543777 -0.0005223 11.04074451 -0.0042433 12.52604675 -0.00915527 C16.54851252 -0.018541 20.57073401 -0.0091602 24.59318066 0.00417686 C28.80296546 0.01550705 33.01273851 0.01138285 37.22253418 0.00942993 C44.28717027 0.00854784 51.35171023 0.0196128 58.4163208 0.03804016 C66.59050148 0.05923926 74.7645417 0.06271022 82.93874431 0.0564782 C90.80044206 0.05079088 98.66209022 0.05642061 106.52378082 0.06765175 C109.87144129 0.07230279 113.21907149 0.07316946 116.56673431 0.0710659 C120.50331976 0.06918712 124.43976149 0.07725506 128.37631416 0.0931263 C129.82354958 0.09738049 131.27079955 0.09821212 132.71803856 0.0954361 C134.68760199 0.09223033 136.65717385 0.10249138 138.62670898 0.11352539 C140.28254313 0.1166047 140.28254313 0.1166047 141.97182846 0.11974621 C144.55938721 0.3742218 144.55938721 0.3742218 146.55938721 2.3742218 C146.55938721 11.9442218 146.55938721 21.5142218 146.55938721 31.3742218 C103.65938721 31.3742218 60.75938721 31.3742218 16.55938721 31.3742218 C16.88938721 41.9342218 17.21938721 52.4942218 17.55938721 63.3742218 C21.59564331 63.41180603 21.59564331 63.41180603 25.71343994 63.45014954 C34.58235736 63.53345103 43.45121469 63.62215877 52.32005215 63.71356106 C57.69969524 63.76883619 63.07934373 63.82226338 68.45904541 63.87153625 C73.64618391 63.91911228 78.83325406 63.97145237 84.02031136 64.02716255 C86.00393037 64.04761685 87.98756815 64.06632472 89.97122002 64.08329582 C92.73952936 64.10727203 95.50770822 64.13733545 98.27593994 64.16889954 C99.10456039 64.174655 99.93318085 64.18041046 100.78691101 64.18634033 C106.44533505 64.26016964 106.44533505 64.26016964 107.55938721 65.3742218 C107.55938721 74.9442218 107.55938721 84.5142218 107.55938721 94.3742218 C63.00938721 94.8692218 63.00938721 94.8692218 17.55938721 95.3742218 C17.55938721 105.9342218 17.55938721 116.4942218 17.55938721 127.3742218 C60.12938721 127.7042218 102.69938721 128.0342218 146.55938721 128.3742218 C146.55938721 137.9442218 146.55938721 147.5142218 146.55938721 157.3742218 C143.082535 159.69212327 141.73821566 159.62888894 137.63380432 159.64164734 C135.77701805 159.65444229 135.77701805 159.65444229 133.88272095 159.66749573 C132.50842272 159.66679667 131.1341246 159.66587359 129.75982666 159.66474915 C128.31425122 159.67073282 126.86867898 159.677538 125.42311096 159.68510437 C121.49310769 159.70279317 117.56319148 159.7074611 113.63315225 159.70873594 C111.17653449 159.71015707 108.7199389 159.71442603 106.26332664 159.71973038 C97.68890349 159.7382438 89.11454257 159.7463998 80.5401001 159.74482727 C72.55518418 159.74362717 64.57053915 159.76470021 56.58569175 159.7963146 C49.72610211 159.82250299 42.86660075 159.83319342 36.00696152 159.83191645 C31.91205373 159.83140735 27.81738634 159.83706117 23.72252846 159.85827255 C19.86712915 159.87769699 16.01219839 159.87775107 12.15678215 159.86323929 C10.74592018 159.86115491 9.33502859 159.86583 7.92421722 159.87796021 C0.04433787 159.94129276 -5.75896111 159.75414259 -12.44061279 155.3742218 C-19.13731319 148.67752141 -20.77461636 142.68576816 -20.84719849 133.52145386 C-20.84112579 132.37007431 -20.8350531 131.21869476 -20.82879639 130.03242493 C-20.83405334 128.80394333 -20.8393103 127.57546173 -20.84472656 126.30975342 C-20.85563482 122.95630233 -20.8531249 119.60340973 -20.84358931 116.24999046 C-20.83596379 112.73121293 -20.84304632 109.21245833 -20.8477478 105.69367981 C-20.85319697 99.78588099 -20.84603586 93.87819489 -20.83172607 87.97041321 C-20.81540109 81.15216364 -20.8206902 74.33418324 -20.83720529 67.51594019 C-20.85084416 61.64904819 -20.85272813 55.78223696 -20.84488928 49.91533422 C-20.84022591 46.41693049 -20.8395509 42.91865305 -20.84949875 39.42025757 C-20.85981909 35.51873918 -20.84549181 31.61751934 -20.82879639 27.71601868 C-20.83486908 26.56463913 -20.84094177 25.41325958 -20.84719849 24.22698975 C-20.78733245 16.66822529 -20.12304415 11.56414018 -15.12811279 5.6242218 C-10.30423892 1.58562973 -6.28216157 -0.0009533 0 0 Z " fill="#70206D" transform="translate(1339.4406127929688,335.6257781982422)"/>
<path d="M0 0 C1.38557992 -0.00571078 2.77115513 -0.01267776 4.15672302 -0.02079773 C7.9006043 -0.03866612 11.64425039 -0.03757279 15.38816142 -0.03185534 C18.52173042 -0.02875436 21.65525483 -0.03486601 24.78881747 -0.04089409 C32.18509609 -0.0549169 39.58125915 -0.05339673 46.97753906 -0.04199219 C54.59049482 -0.03051245 62.20309822 -0.04458914 69.81600755 -0.07138866 C76.36914665 -0.09358793 82.92217548 -0.10017357 89.47534949 -0.09431225 C93.38185003 -0.09095163 97.28812475 -0.09329784 101.19459343 -0.11056328 C104.86952079 -0.12609815 108.54392851 -0.12200534 112.21883583 -0.10325813 C114.19824675 -0.09785098 116.17768136 -0.11203636 118.15704346 -0.12695312 C127.48756202 -0.05020838 135.39055502 1.59514486 142.19946289 8.40405273 C146.20377946 15.26859543 147.27566377 21.94096523 145.73852539 29.74389648 C143.90869634 36.04066117 140.97857835 41.23300019 135.16619968 44.57213593 C127.83991583 47.73902625 121.17123085 47.97211085 113.26367188 47.92163086 C111.88764713 47.92706263 110.51162821 47.93419117 109.13562012 47.94287109 C105.42690125 47.96098073 101.71863148 47.95408921 98.00990558 47.94135475 C94.11304261 47.93116446 90.21621582 47.94063686 86.3193512 47.94689941 C79.77874917 47.95415753 73.23832836 47.94463568 66.69775391 47.92553711 C59.15404227 47.90376266 51.61076305 47.91083108 44.06706184 47.93284273 C37.56907134 47.95103844 31.07121043 47.95353504 24.57320267 47.94308805 C20.70139838 47.93687711 16.82979687 47.93595104 12.95800591 47.94923401 C9.31750019 47.96085333 5.67754812 47.95265735 2.03710175 47.92965698 C0.07681015 47.92191121 -1.88352869 47.93367305 -3.84379578 47.94616699 C-12.51078271 47.86362356 -18.97100965 46.65082602 -25.67553711 40.96655273 C-32.05764981 33.27047566 -32.63439495 26.22243518 -31.80053711 16.40405273 C-30.15637129 10.50384625 -26.87941662 6.82252933 -21.80053711 3.40405273 C-14.57322872 -0.08232327 -7.93403546 -0.02779683 0 0 Z " fill="#792B78" transform="translate(770.800537109375,207.595947265625)"/>
<path d="M0 0 C30.36 0 60.72 0 92 0 C92 15.84 92 31.68 92 48 C61.64 48 31.28 48 0 48 C0 32.16 0 16.32 0 0 Z " fill="#FEFDFE" transform="translate(778,366)"/>
<path d="M0 0 C30.36 0 60.72 0 92 0 C92 15.84 92 31.68 92 48 C61.64 48 31.28 48 0 48 C0 32.16 0 16.32 0 0 Z " fill="#FEFEFE" transform="translate(392,366)"/>
<path d="M0 0 C0 3.99114445 -1.83315164 6.5633738 -3.75 9.9375 C-15.61592322 31.54317312 -16.64472029 55.08271708 -10.29833984 78.60009766 C-4.7259941 97.73147217 4.61980226 115.28839376 14.7578125 132.359375 C25.29075385 150.28669109 28.51932107 173.18157763 23.375 193.4375 C22.65720559 195.9926938 21.84529494 198.48001414 21 201 C20.59910156 202.21558594 20.19820312 203.43117187 19.78515625 204.68359375 C14.52805701 219.08347429 6.1146691 232.5124816 -4 244 C-4.71800781 244.82628906 -5.43601562 245.65257812 -6.17578125 246.50390625 C-13.60082965 254.9035724 -21.44629902 262.7514959 -30 270 C-30.66 269.67 -31.32 269.34 -32 269 C-30.93072266 267.87464844 -30.93072266 267.87464844 -29.83984375 266.7265625 C-15.32131997 251.28840519 -5.63597749 234.43649164 0 214 C0.27070312 213.02232666 0.54140625 212.04465332 0.8203125 211.03735352 C2.87143231 203.00238329 3.47356651 195.46250277 3.375 187.1875 C3.36629883 185.96353516 3.35759766 184.73957031 3.34863281 183.47851562 C3.00015378 161.91851787 -4.36129792 143.3794708 -12.625 123.75 C-24.48964334 95.33531277 -32.68156877 66.76373506 -21.875 36.625 C-16.32744853 23.14527793 -9.32140666 11.18958002 0 0 Z " fill="#792E77" transform="translate(1106,41)"/>
<path d="M0 0 C30.36 0 60.72 0 92 0 C92 10.89 92 21.78 92 33 C90.155281 34.844719 87.55483588 34.1200219 85.1006012 34.12442017 C84.25327927 34.12082489 83.40595734 34.11722961 82.53295898 34.11352539 C81.64523804 34.11367142 80.75751709 34.11381744 79.84289551 34.1139679 C76.89393716 34.11326843 73.94504113 34.10547448 70.99609375 34.09765625 C68.95728083 34.09579219 66.91846746 34.09436823 64.87965393 34.09336853 C59.50215426 34.08954241 54.12468142 34.07971132 48.74719238 34.06866455 C43.26440799 34.05845245 37.78161928 34.05387134 32.29882812 34.04882812 C21.53253838 34.03808914 10.76627561 34.02049158 0 34 C0 22.78 0 11.56 0 0 Z " fill="#FBF9FA" transform="translate(971,430)"/>
<path d="M0 0 C27.06 0 54.12 0 82 0 C82 11.22 82 22.44 82 34 C54.94 34 27.88 34 0 34 C0 22.78 0 11.56 0 0 Z " fill="#FAF8FA" transform="translate(971,366)"/>
<path d="M0 0 C5.43848264 3.92489342 10.02502152 9.00690227 12.03515625 15.46875 C12.96270243 23.19111124 12.22305666 29.83904446 8.03515625 36.46875 C3.02324769 42.40390488 -3.20764141 46.74909971 -11.02734375 47.7265625 C-18.7167079 48.12705022 -24.77627968 45.40188315 -30.77734375 40.71875 C-35.83900611 36.1033595 -38.68320154 29.67947117 -39.27734375 22.90625 C-39.15295479 15.3876284 -35.79068951 8.33776672 -30.63671875 2.94140625 C-22.3486121 -4.3590989 -9.76923688 -5.11287164 0 0 Z " fill="#F9F7F9" transform="translate(1502.96484375,263.53125)"/>
<path d="M0 0 C1.01966251 3.2301197 0.95302003 4.18478789 0.0625 7.6875 C-4.41340253 26.48629063 1.39289709 44.83244415 11 61 C15.42043566 67.97034045 20.4661456 74.41825515 25.75 80.75 C37.58366369 95.06727212 41.71648739 109.61672656 40 128 C38.47401788 139.69389773 33.69179497 149.79471148 28 160 C27.47019531 160.96035156 26.94039062 161.92070312 26.39453125 162.91015625 C23.07805685 168.66286117 19.19587641 173.86067209 15 179 C15 175.11682649 16.39723415 173.15971195 18.25 169.75 C26.93629935 153.15789665 30.35601069 131.9672733 24.97265625 113.7890625 C21.21256468 103.00711317 16.08881796 93.55196131 10.0546875 83.8828125 C-3.16250787 62.68346777 -12.40118945 42.96809704 -6.76269531 17.37890625 C-5.23011705 11.20188607 -3.21702982 5.51490826 0 0 Z " fill="#792F76" transform="translate(1056,103)"/>
<path d="M0 0 C225.72 0 451.44 0 684 0 C679.93519981 2.0324001 678.35941507 2.09275351 674 2 C672.515 2.495 672.515 2.495 671 3 C670.01 2.67 669.02 2.34 668 2 C667.01 2 666.02 2 665 2 C662.7875927 1.93236319 660.57537277 1.85852831 658.36328125 1.78125 C656.41518555 1.71357422 656.41518555 1.71357422 654.42773438 1.64453125 C653.05598919 1.59636535 651.6842444 1.54818812 650.3125 1.5 C648.92903811 1.45177545 647.54557459 1.40359782 646.16210938 1.35546875 C642.77472318 1.23744136 639.38735453 1.11893223 636 1 C636 1.66 636 2.32 636 3 C635.34 3 634.68 3 634 3 C634 2.34 634 1.68 634 1 C632.6903125 1.16242187 631.380625 1.32484375 630.03125 1.4921875 C625.50065187 1.99147071 621.0547568 2.15242649 616.5 2.125 C615.6862793 2.12306641 614.87255859 2.12113281 614.03417969 2.11914062 C600.01964975 2.02810434 586.00571994 1.47408631 572 1 C571.67 1.66 571.34 2.32 571 3 C571 2.34 571 1.68 571 1 C570.0212793 1.03552979 569.04255859 1.07105957 568.03417969 1.10766602 C564.3965066 1.23822116 560.75861242 1.36131497 557.12060547 1.48217773 C555.54729317 1.53548564 553.97404769 1.59080589 552.40087891 1.64819336 C550.13719081 1.73041829 547.87335962 1.8053589 545.609375 1.87890625 C544.90818542 1.90594131 544.20699585 1.93297638 543.48455811 1.96083069 C540.15257463 2.06222717 537.18290477 2.05977883 534 1 C533.67 1.66 533.34 2.32 533 3 C533 2.34 533 1.68 533 1 C531.61611572 1.24398781 531.61611572 1.24398781 530.20427418 1.49290466 C525.05724933 2.22176462 519.92038118 2.1313201 514.73161316 2.11352539 C513.04029305 2.11374868 513.04029305 2.11374868 511.31480485 2.11397648 C507.54082411 2.11328261 503.76689219 2.1054432 499.99291992 2.09765625 C497.28580759 2.09517274 494.57869527 2.09422134 491.87158203 2.0932312 C486.04509557 2.09034862 480.21862182 2.08391632 474.39214134 2.07516479 C465.96591157 2.06260105 457.53968649 2.05653197 449.1134489 2.05223143 C435.43866597 2.04516923 421.76388898 2.03436984 408.08911133 2.02050781 C407.2711754 2.01968 406.45323947 2.01885219 405.6105176 2.01799929 C399.80284496 2.01209724 393.99517247 2.00606222 388.1875 2 C381.54467783 1.99306878 374.9018556 1.98620278 368.2590332 1.97949219 C367.44057929 1.97866406 366.62212538 1.97783593 365.77886983 1.97698271 C352.1484307 1.96331278 338.51799148 1.95354587 324.88754731 1.94658184 C316.4780604 1.94209427 308.06859099 1.93404114 299.65911225 1.92143703 C293.90398133 1.91303233 288.14885444 1.90812543 282.39371779 1.90601182 C279.06994776 1.90466262 275.74620539 1.90108233 272.42244148 1.89425278 C268.82610283 1.88709272 265.22981314 1.88599651 261.63346863 1.88647461 C260.57405837 1.88287965 259.51464811 1.87928469 258.42313451 1.87558079 C257.46553552 1.87695514 256.50793653 1.87832949 255.52131939 1.87974548 C254.69048861 1.87882369 253.85965783 1.8779019 253.00365037 1.87695217 C250.92727205 1.87321917 250.92727205 1.87321917 249 3 C249 2.34 249 1.68 249 1 C166.83 1 84.66 1 0 1 C0 0.67 0 0.34 0 0 Z " fill="#71356F" transform="translate(784,514)"/>
<path d="M0 0 C5.43848264 3.92489342 10.02502152 9.00690227 12.03515625 15.46875 C12.96270243 23.19111124 12.22305666 29.83904446 8.03515625 36.46875 C3.02324769 42.40390488 -3.20764141 46.74909971 -11.02734375 47.7265625 C-18.7167079 48.12705022 -24.77627968 45.40188315 -30.77734375 40.71875 C-35.83900611 36.1033595 -38.68320154 29.67947117 -39.27734375 22.90625 C-39.15295479 15.3876284 -35.79068951 8.33776672 -30.63671875 2.94140625 C-22.3486121 -4.3590989 -9.76923688 -5.11287164 0 0 Z M-29.83984375 9.53125 C-33.80295748 15.00967192 -34.63818329 18.77950805 -33.96484375 25.46875 C-32.65739971 32.48493483 -28.66340487 36.42178721 -22.96484375 40.46875 C-18.21927593 43.35651946 -13.35664106 43.05205123 -7.96484375 42.46875 C-1.26521258 40.65927697 2.56971262 36.30844221 6.03515625 30.46875 C7.86751382 24.9716773 8.21241895 18.50227755 6.09375 13.04296875 C3.1156184 8.08563997 -0.36750354 4.67681521 -5.65234375 2.21875 C-15.76537991 -0.07099404 -22.92944783 1.61350773 -29.83984375 9.53125 Z " fill="#723771" transform="translate(1502.96484375,263.53125)"/>
<path d="M0 0 C4.33125 -0.12375 4.33125 -0.12375 8.75 -0.25 C9.65331055 -0.28641602 10.55662109 -0.32283203 11.48730469 -0.36035156 C17.38412637 -0.44206881 17.38412637 -0.44206881 20.546875 1.828125 C22.53179475 4.79483301 22.5833135 6.50011898 22 10 C20.125 12.375 20.125 12.375 18 14 C17.34 14 16.68 14 16 14 C16.5053125 14.69867188 17.010625 15.39734375 17.53125 16.1171875 C18.50578125 17.48230469 18.50578125 17.48230469 19.5 18.875 C20.1496875 19.77992188 20.799375 20.68484375 21.46875 21.6171875 C23 24 23 24 23 26 C20.2265625 26.30859375 20.2265625 26.30859375 17 26 C15.0234375 23.84765625 15.0234375 23.84765625 13.375 21.0625 C11.30393903 17.28480233 11.30393903 17.28480233 7.7890625 15.18359375 C7.19867187 15.12300781 6.60828125 15.06242187 6 15 C6.01160156 15.71027344 6.02320313 16.42054688 6.03515625 17.15234375 C6.04869141 18.53099609 6.04869141 18.53099609 6.0625 19.9375 C6.07410156 20.85402344 6.08570313 21.77054687 6.09765625 22.71484375 C6 25 6 25 5 26 C3.35 26 1.7 26 0 26 C0 17.42 0 8.84 0 0 Z " fill="#7F477D" transform="translate(1478,273)"/>
<path d="M0 0 C1.90869118 -0.00744736 1.90869118 -0.00744736 3.85594177 -0.01504517 C7.32463378 -0.02807558 10.79330654 -0.03459408 14.26201916 -0.03905582 C16.43101188 -0.04199796 18.59999946 -0.04610456 20.76898956 -0.05056 C27.56170364 -0.06420182 34.35440582 -0.07388819 41.14713264 -0.07776189 C48.97863821 -0.08225361 56.8099702 -0.0998667 64.64142299 -0.12876248 C70.70614375 -0.15036182 76.77081556 -0.16046501 82.83557439 -0.16180301 C86.45405736 -0.16285104 90.07237641 -0.16876003 93.69081879 -0.18662262 C97.71976856 -0.20613011 101.74835205 -0.20182145 105.77734375 -0.1953125 C106.97534103 -0.20452728 108.17333832 -0.21374207 109.40763855 -0.22323608 C110.50383011 -0.21766693 111.60002167 -0.21209778 112.72943115 -0.20635986 C114.15737314 -0.2085597 114.15737314 -0.2085597 115.61416245 -0.21080399 C118.55105666 0.22340128 119.93519237 1.21124865 122.12988281 3.16113281 C121.40689373 3.15836743 120.68390465 3.15560205 119.93900681 3.15275288 C102.35428641 3.08652541 84.76959766 3.03686803 67.18478012 3.0056963 C58.68092116 2.99022155 50.1771454 2.96912046 41.67333984 2.93481445 C34.26218716 2.90493065 26.85109473 2.88556223 19.43988347 2.87886733 C15.51498917 2.87495332 11.59026726 2.86574238 7.66542816 2.84394264 C3.97186019 2.82359349 0.27853577 2.81729577 -3.41508293 2.82180977 C-5.41821776 2.8205898 -7.42132601 2.80443943 -9.4243927 2.78787231 C-11.21223427 2.7940583 -11.21223427 2.7940583 -13.03619385 2.80036926 C-14.07228916 2.79760388 -15.10838448 2.7948385 -16.17587662 2.79198933 C-19.2606199 3.2146364 -20.53402248 4.17380163 -22.87011719 6.16113281 C-23.55074219 6.28488281 -24.23136719 6.40863281 -24.93261719 6.53613281 C-27.83490162 7.4723536 -28.42164098 9.59337953 -29.87011719 12.16113281 C-30.53011719 12.16113281 -31.19011719 12.16113281 -31.87011719 12.16113281 C-30.57161437 8.14260831 -29.2646383 6.24112937 -25.74511719 3.91113281 C-25.02066406 3.41097656 -24.29621094 2.91082031 -23.54980469 2.39550781 C-16.43710738 -0.88089503 -7.66181092 0.00719793 0 0 Z " fill="#A06F9C" transform="translate(387.8701171875,333.8388671875)"/>
<path d="M0 0 C84.15 0 168.3 0 255 0 C250.93519981 2.0324001 249.35941507 2.09275351 245 2 C244.01 2.33 243.02 2.66 242 3 C241.01 2.67 240.02 2.34 239 2 C238.01 2 237.02 2 236 2 C233.7875927 1.93236319 231.57537277 1.85852831 229.36328125 1.78125 C228.06455078 1.73613281 226.76582031 1.69101562 225.42773438 1.64453125 C224.05598919 1.59636535 222.6842444 1.54818812 221.3125 1.5 C219.92903811 1.45177545 218.54557459 1.40359782 217.16210938 1.35546875 C213.77472318 1.23744136 210.38735453 1.11893223 207 1 C207 1.66 207 2.32 207 3 C206.34 3 205.68 3 205 3 C205 2.34 205 1.68 205 1 C203.6903125 1.16242187 202.380625 1.32484375 201.03125 1.4921875 C196.50065187 1.99147071 192.0547568 2.15242649 187.5 2.125 C186.6862793 2.12306641 185.87255859 2.12113281 185.03417969 2.11914062 C171.01964975 2.02810434 157.00571994 1.47408631 143 1 C142.67 1.66 142.34 2.32 142 3 C142 2.34 142 1.68 142 1 C140.53191895 1.05329468 140.53191895 1.05329468 139.03417969 1.10766602 C135.3965066 1.23822116 131.75861242 1.36131497 128.12060547 1.48217773 C126.54729317 1.53548564 124.97404769 1.59080589 123.40087891 1.64819336 C121.13719081 1.73041829 118.87335962 1.8053589 116.609375 1.87890625 C115.90818542 1.90594131 115.20699585 1.93297638 114.48455811 1.96083069 C111.15257463 2.06222717 108.18290477 2.05977883 105 1 C104.67 1.66 104.34 2.32 104 3 C104 2.34 104 1.68 104 1 C103.00507034 1.16233124 102.01014069 1.32466248 100.98506165 1.49191284 C97.06860372 2.04838745 93.18991762 2.1410653 89.23901367 2.12939453 C88.49637268 2.13114685 87.75373169 2.13289917 86.98858643 2.13470459 C84.54835628 2.13908191 82.10819957 2.13619633 79.66796875 2.1328125 C77.94989508 2.1334875 76.23182151 2.13445916 74.51374817 2.13571167 C70.91190685 2.13718375 67.31009037 2.13505274 63.70825195 2.13037109 C59.14436159 2.12472147 54.58053067 2.1279254 50.01664257 2.13394356 C46.4636238 2.13760315 42.91061849 2.13638538 39.35759926 2.13381577 C37.6782868 2.13315883 35.99897302 2.13393058 34.31966209 2.13629532 C22.8457869 2.14889108 11.44969313 1.74803233 0 1 C0 0.67 0 0.34 0 0 Z " fill="#692C67" transform="translate(1213,514)"/>
<path d="M0 0 C0.99 0.33 1.98 0.66 3 1 C1.71937515 2.7074998 0.38232443 4.37373596 -1 6 C-1.66 6 -2.32 6 -3 6 C-3 51.21 -3 96.42 -3 143 C-6.13720383 139.86279617 -6.12681973 137.09942743 -6.14044189 132.8649292 C-6.14615204 131.80232376 -6.15186218 130.73971832 -6.15774536 129.64491272 C-6.15886322 128.47915207 -6.15998108 127.31339142 -6.16113281 126.11230469 C-6.16609772 124.8844072 -6.17106262 123.6565097 -6.17617798 122.3914032 C-6.18828855 119.02136771 -6.19574551 115.65139428 -6.20018864 112.28134441 C-6.20312134 110.17450125 -6.20722658 108.0676635 -6.21169281 105.96082306 C-6.22536684 99.36510803 -6.23503339 92.76940542 -6.2388947 86.17367721 C-6.24337235 78.56741084 -6.26090689 70.96132445 -6.2898953 63.35511279 C-6.31153834 57.47133606 -6.32160041 51.58760986 -6.32293582 45.70379376 C-6.32398218 42.19189104 -6.32985338 38.68015752 -6.34775543 35.16829681 C-6.36735434 31.24723048 -6.36293667 27.32638752 -6.35644531 23.40527344 C-6.3656601 22.24760971 -6.37487488 21.08994598 -6.3843689 19.89720154 C-6.34278278 11.87826237 -5.29398593 6.30236421 0 0 Z " fill="#834A7E" transform="translate(1325,340)"/>
<path d="M0 0 C1.17506607 -0.00137466 2.35013214 -0.00274933 3.56080627 -0.00416565 C5.4888636 0.00122726 5.4888636 0.00122726 7.45587158 0.00672913 C8.82590228 0.00701126 10.19593313 0.00685275 11.56596375 0.00628662 C15.28256375 0.00599968 18.99913149 0.0118798 22.71572399 0.01886058 C26.60080489 0.02511122 30.48588653 0.02569927 34.37097168 0.02688599 C41.72674201 0.02999425 49.08249748 0.03820085 56.43826127 0.04823548 C64.81304149 0.05941227 73.18782242 0.06491102 81.56260824 0.06993091 C98.78908222 0.08038387 116.01554174 0.09797355 133.24200439 0.12025452 C133.57200439 1.77025452 133.90200439 3.42025452 134.24200439 5.12025452 C133.25200439 4.13025452 133.25200439 4.13025452 132.24200439 3.12025452 C129.6320574 2.82087908 129.6320574 2.82087908 126.53469849 2.87974548 C125.32031097 2.87699615 124.10592346 2.87424683 122.85473633 2.87141418 C121.50189111 2.87849291 120.14904688 2.88576254 118.79620361 2.89320374 C117.37720752 2.89376764 115.95821084 2.89345169 114.53921509 2.89231873 C110.67990167 2.8917434 106.82071183 2.90352663 102.96142721 2.91746664 C98.93086462 2.92994419 94.90029939 2.93114214 90.86972046 2.93351746 C83.2340771 2.939741 75.59849082 2.9561636 67.96287262 2.97621644 C59.27134304 2.99854828 50.57981077 3.00956202 41.88825965 3.01960731 C24.00614217 3.0405291 6.12407787 3.07572201 -11.75799561 3.12025452 C-8.32066084 -0.31708025 -4.69250737 -0.00423511 0 0 Z " fill="#986495" transform="translate(569.7579956054688,333.87974548339844)"/>
<path d="M0 0 C4.49751817 0.47094431 6.27657006 1.84922305 9.1875 5.25 C9.86167969 6.01828125 10.53585937 6.7865625 11.23046875 7.578125 C15.66105151 13.64205725 15.74971234 19.71575787 15 27 C13.02899068 34.10628764 9.28243411 38.39088571 3.5625 42.9375 C1 44 1 44 -2.3125 43.1875 C-3.199375 42.795625 -4.08625 42.40375 -5 42 C-3.45620382 40.97080255 -1.9083859 39.94515908 -0.31640625 38.9921875 C4.57615323 35.87576877 7.42269886 32.64655141 9 27 C10.04719181 19.17305087 9.17466436 11.81550636 5 5 C2.43600226 2.98880254 2.43600226 2.98880254 0 2 C0 1.34 0 0.68 0 0 Z " fill="#70356E" transform="translate(1500,264)"/>
<path d="M0 0 C0.33 0 0.66 0 1 0 C1.33 3.3 1.66 6.6 2 10 C3.32 9.01 4.64 8.02 6 7 C6.350625 8.19625 6.70125 9.3925 7.0625 10.625 C9.12218381 16.15672223 12.92070408 19.04167584 17.78125 22.1328125 C21.91593527 23.74883385 26.39326716 23.47191048 30.78515625 23.65625 C34 24 34 24 37 26 C30.83239054 29.1494176 25.45338985 30.32256712 18.671875 28.30859375 C10.76314795 25.09399211 5.27253842 20.64859556 1.7265625 12.83203125 C-0.08479016 8.26469579 -0.07972007 4.86292437 0 0 Z " fill="#845083" transform="translate(1464,282)"/>
<path d="M0 0 C1.01966251 3.2301197 0.95302003 4.18478789 0.0625 7.6875 C-2.83555599 19.75611671 -1.1456104 32.18523714 2 44 C1.34 44 0.68 44 0 44 C-0.12375 42.865625 -0.2475 41.73125 -0.375 40.5625 C-0.58125 39.386875 -0.7875 38.21125 -1 37 C-1.66 36.67 -2.32 36.34 -3 36 C-2.67 34.68 -2.34 33.36 -2 32 C-2.99 32.66 -3.98 33.32 -5 34 C-5.41428346 35.93076478 -5.41428346 35.93076478 -5.29296875 38.1328125 C-5.28330078 38.93847656 -5.27363281 39.74414062 -5.26367188 40.57421875 C-5.2259668 41.83685547 -5.2259668 41.83685547 -5.1875 43.125 C-5.17396484 43.97449219 -5.16042969 44.82398438 -5.14648438 45.69921875 C-5.11108219 47.79974837 -5.05727401 49.89995293 -5 52 C-10.46617137 43.80074295 -9.03837472 28.85723419 -7.24609375 19.48046875 C-5.69509137 12.57282991 -3.58258 6.14156571 0 0 Z " fill="#83477F" transform="translate(1056,103)"/>
<path d="M0 0 C1.91817787 -0.00618599 1.91817787 -0.00618599 3.87510681 -0.01249695 C5.27954316 -0.00188157 6.68397734 0.00902283 8.08840942 0.02018738 C9.57696007 0.02103419 11.06551197 0.02055745 12.55406189 0.01885986 C16.58468019 0.01800059 20.61502961 0.03561518 24.64558554 0.05658174 C28.86163049 0.07535997 33.07768189 0.07709988 37.29376221 0.08065796 C45.27283915 0.08997506 53.25179249 0.11458429 61.23081505 0.14470643 C70.31661635 0.17826087 79.40242362 0.19473907 88.48827147 0.20979273 C107.17422732 0.24113416 125.86006819 0.29388813 144.54592896 0.36076355 C144.54592896 0.69076355 144.54592896 1.02076355 144.54592896 1.36076355 C134.4498073 1.52437958 124.35355688 1.6777636 114.25717163 1.82412338 C112.58053346 1.84846513 110.90389769 1.87297212 109.2272644 1.89764786 C88.80803329 2.19744724 68.39335024 2.40452458 47.97171021 2.3568573 C46.67177155 2.35423071 46.67177155 2.35423071 45.34557152 2.35155106 C36.92827933 2.33407857 28.51119348 2.30686729 20.09406567 2.25057888 C16.99298269 2.23155141 13.89190186 2.22017355 10.79077721 2.21045113 C9.3503067 2.20395366 7.90984748 2.19378937 6.46943092 2.17973137 C4.5067157 2.16068539 2.54388597 2.15477469 0.58108521 2.14958191 C-1.06814941 2.13839577 -1.06814941 2.13839577 -2.7507019 2.12698364 C-5.67647282 2.16167734 -5.67647282 2.16167734 -8.45407104 4.36076355 C-10.64157104 3.98576355 -10.64157104 3.98576355 -12.45407104 3.36076355 C-8.09931688 0.88295006 -4.99767046 -0.01247339 0 0 Z " fill="#75386F" transform="translate(1339.4540710449219,335.6392364501953)"/>
<path d="M0 0 C4.62 0 9.24 0 14 0 C14 0.66 14 1.32 14 2 C14.66 2.33 15.32 2.66 16 3 C12.7 3.33 9.4 3.66 6 4 C5.7834375 5.60875 5.7834375 5.60875 5.5625 7.25 C5.16250558 9.91662949 4.72408076 12.41399729 4 15 C4.33 15 4.66 15 5 15 C5 18.63 5 22.26 5 26 C3.35 26 1.7 26 0 26 C0 17.42 0 8.84 0 0 Z " fill="#7C427A" transform="translate(1478,273)"/>
<path d="M0 0 C0.33 0 0.66 0 1 0 C1 1.65 1 3.3 1 5 C1.99 4.67 2.98 4.34 4 4 C4.33 3.34 4.66 2.68 5 2 C5.66 2 6.32 2 7 2 C3.5289016 13.3691049 -3.76804309 22.75096668 -11 32 C-11 28.11682649 -9.60276585 26.15971195 -7.75 22.75 C-3.89206959 15.41671158 -1.81946739 8.06894232 0 0 Z " fill="#7D4179" transform="translate(1082,250)"/>
<path d="M0 0 C1.32 1.65 2.64 3.3 4 5 C-11.14893617 20.34042553 -11.14893617 20.34042553 -18 26 C-18.66 25.67 -19.32 25.34 -20 25 C-19.28714844 24.24976563 -18.57429688 23.49953125 -17.83984375 22.7265625 C-11.97573361 16.48524689 -6.68566394 10.19925627 -2 3 C-1.34 2.01 -0.68 1.02 0 0 Z " fill="#7F547C" transform="translate(1094,285)"/>
<path d="M0 0 C2.97 0 5.94 0 9 0 C9.061875 0.680625 9.12375 1.36125 9.1875 2.0625 C10.1454926 5.52601171 11.74989403 7.64929804 13.94140625 10.44921875 C15 12 15 12 15 14 C12.234375 14.296875 12.234375 14.296875 9 14 C6.953125 11.953125 6.953125 11.953125 5.25 9.25 C4.67765625 8.36828125 4.1053125 7.4865625 3.515625 6.578125 C2.2556321 4.4348381 1.11186877 2.22373755 0 0 Z " fill="#662864" transform="translate(1486,285)"/>
<path d="M0 0 C1.07138687 3.29760194 0.90279404 5.60429626 0.22265625 8.984375 C-0.05288086 10.38623047 -0.05288086 10.38623047 -0.33398438 11.81640625 C-0.53314453 12.78449219 -0.73230469 13.75257812 -0.9375 14.75 C-1.13279297 15.73355469 -1.32808594 16.71710938 -1.52929688 17.73046875 C-2.01190558 20.15528321 -2.50238859 22.57822773 -3 25 C-3.66 25 -4.32 25 -5 25 C-5 25.99 -5 26.98 -5 28 C-5.66 28 -6.32 28 -7 28 C-7.80888074 17.84405293 -4.90960581 8.83729046 0 0 Z " fill="#71346E" transform="translate(1056,103)"/>
<path d="M0 0 C1.47906892 -0.02689216 2.95827483 -0.04634621 4.4375 -0.0625 C5.26121094 -0.07410156 6.08492187 -0.08570313 6.93359375 -0.09765625 C9 0 9 0 10 1 C10.125 3.5 10.125 3.5 10 6 C9 7 9 7 6.93359375 7.09765625 C6.10988281 7.08605469 5.28617188 7.07445312 4.4375 7.0625 C3.61121094 7.05347656 2.78492188 7.04445313 1.93359375 7.03515625 C1.29550781 7.02355469 0.65742187 7.01195312 0 7 C0 4.69 0 2.38 0 0 Z " fill="#FDFCFD" transform="translate(1484,277)"/>
<path d="M0 0 C0 4.09812961 -1.92968848 6.88824787 -3.875 10.375 C-6.16305789 14.51452523 -8.36622803 18.54582169 -10 23 C-11.32 22.67 -12.64 22.34 -14 22 C-12.5537886 16.19684792 -9.48031878 12.25084985 -5.875 7.625 C-5.31167969 6.88894531 -4.74835938 6.15289062 -4.16796875 5.39453125 C-2.78578304 3.59066176 -1.39642491 1.79285407 0 0 Z " fill="#865B83" transform="translate(1106,41)"/>
<path d="M0 0 C0.66 0.33 1.32 0.66 2 1 C1.67 5.62 1.34 10.24 1 15 C0.01 15.33 -0.98 15.66 -2 16 C-3.0219369 12.93418931 -3.1986365 10.65199926 -3.25 7.4375 C-3.27578125 6.46683594 -3.3015625 5.49617188 -3.328125 4.49609375 C-3.21984375 3.67238281 -3.1115625 2.84867187 -3 2 C-2.01 1.34 -1.02 0.68 0 0 Z " fill="#6C2D6A" transform="translate(1468,276)"/>
<path d="M0 0 C0.99 0.33 1.98 0.66 3 1 C1.71937515 2.7074998 0.38232443 4.37373596 -1 6 C-1.66 6 -2.32 6 -3 6 C-3.33 16.56 -3.66 27.12 -4 38 C-4.33 38 -4.66 38 -5 38 C-5.12437698 33.71339534 -5.21469796 29.42776918 -5.2746582 25.13989258 C-5.29967393 23.6839771 -5.33369864 22.22818559 -5.37719727 20.77270508 C-5.77487245 7.11607143 -5.77487245 7.11607143 -2.48046875 2.50390625 C-1.66191406 1.67761719 -0.84335938 0.85132813 0 0 Z " fill="#753070" transform="translate(1325,340)"/>
<path d="M0 0 C-0.96355353 9.41002278 -0.96355353 9.41002278 -2 14 C-2.99 12.68 -3.98 11.36 -5 10 C-5.99 10.33 -6.98 10.66 -8 11 C-5.65405405 3.62702703 -5.65405405 3.62702703 -4 1 C-1 0 -1 0 0 0 Z " fill="#7E3E7A" transform="translate(1095,62)"/>
<path d="M0 0 C0.33 0 0.66 0 1 0 C1 2.31 1 4.62 1 7 C3.31 7 5.62 7 8 7 C8 7.33 8 7.66 8 8 C6.35 8 4.7 8 3 8 C3.33 8.99 3.66 9.98 4 11 C3.01 11 2.02 11 1 11 C1 14.3 1 17.6 1 21 C0.67 21 0.34 21 0 21 C-0.33 18.03 -0.66 15.06 -1 12 C-1.33 12 -1.66 12 -2 12 C-2 10.02 -2 8.04 -2 6 C-1.67 6 -1.34 6 -1 6 C-0.67 4.02 -0.34 2.04 0 0 Z " fill="#864A84" transform="translate(1483,277)"/>
<path d="M0 0 C0 0.33 0 0.66 0 1 C-0.74765625 1.03738281 -1.4953125 1.07476562 -2.265625 1.11328125 C-3.25046875 1.17902344 -4.2353125 1.24476563 -5.25 1.3125 C-6.22453125 1.37050781 -7.1990625 1.42851562 -8.203125 1.48828125 C-11.28055345 2.05133031 -12.63608346 3.02224202 -15 5 C-15.680625 5.12375 -16.36125 5.2475 -17.0625 5.375 C-19.96478443 6.31122078 -20.55152379 8.43224672 -22 11 C-22.66 11 -23.32 11 -24 11 C-22.33229577 5.97978264 -20.17937005 3.96008364 -15.796875 1.16015625 C-10.68193842 -0.9615423 -5.42865585 -0.4530872 0 0 Z " fill="#915B8D" transform="translate(380,335)"/>
<path d="M0 0 C2.24606427 1.77444972 2.95081002 2.58352485 3.29296875 5.48046875 C3.25816406 6.37378906 3.22335937 7.26710938 3.1875 8.1875 C3.16042969 9.08855469 3.13335938 9.98960937 3.10546875 10.91796875 C3.07066406 11.60503906 3.03585937 12.29210937 3 13 C1.68 13 0.36 13 -1 13 C-1.02686553 11.02090602 -1.04633375 9.04171029 -1.0625 7.0625 C-1.07410156 5.96035156 -1.08570313 4.85820312 -1.09765625 3.72265625 C-1 1 -1 1 0 0 Z " fill="#652264" transform="translate(1480,285)"/>
<path d="M0 0 C1.32 0.66 2.64 1.32 4 2 C2.38012331 4.31624435 0.75444257 6.62800082 -0.875 8.9375 C-1.33519531 9.59685547 -1.79539062 10.25621094 -2.26953125 10.93554688 C-5.7734375 15.88671875 -5.7734375 15.88671875 -8 17 C-6.51095825 13.10391502 -4.75621287 9.40902982 -2.875 5.6875 C-2.06675781 4.08455078 -2.06675781 4.08455078 -1.2421875 2.44921875 C-0.62730469 1.23685547 -0.62730469 1.23685547 0 0 Z " fill="#82597E" transform="translate(1078,265)"/>
<path d="M0 0 C1.32 1.65 2.64 3.3 4 5 C0.92000054 8.67230705 -1.2482602 9.56802365 -6 10 C-5.18957164 8.51969728 -4.37659652 7.04078858 -3.5625 5.5625 C-2.88380859 4.32693359 -2.88380859 4.32693359 -2.19140625 3.06640625 C-1 1 -1 1 0 0 Z " fill="#7B4279" transform="translate(1094,285)"/>
<path d="M0 0 C1.60379341 -0.05416188 3.20811406 -0.09286638 4.8125 -0.125 C5.70582031 -0.14820313 6.59914063 -0.17140625 7.51953125 -0.1953125 C10 0 10 0 13 2 C7.4477112 4.8352113 3.19887485 5.37952295 -3 5 C-3 4.67 -3 4.34 -3 4 C-0.36 4 2.28 4 5 4 C5 3.01 5 2.02 5 1 C3.35 1 1.7 1 0 1 C0 0.67 0 0.34 0 0 Z " fill="#855484" transform="translate(1488,306)"/>
<path d="M0 0 C1.74796875 0.02030273 1.74796875 0.02030273 3.53125 0.04101562 C6.39631118 0.07624179 9.26041377 0.12550285 12.125 0.1875 C12.125 0.5175 12.125 0.8475 12.125 1.1875 C11.0580188 1.217229 11.0580188 1.217229 9.96948242 1.24755859 C6.75011184 1.34274867 3.5313955 1.45245229 0.3125 1.5625 C-0.80705078 1.5934375 -1.92660156 1.624375 -3.08007812 1.65625 C-4.68979492 1.71425781 -4.68979492 1.71425781 -6.33203125 1.7734375 C-7.8166687 1.82056885 -7.8166687 1.82056885 -9.33129883 1.86865234 C-12.11575094 2.02523433 -12.11575094 2.02523433 -14.875 4.1875 C-17.0625 3.8125 -17.0625 3.8125 -18.875 3.1875 C-12.97481765 -0.81244569 -6.91418228 -0.15217444 0 0 Z " fill="#80477C" transform="translate(1345.875,335.8125)"/>
<path d="M0 0 C2.97 0 5.94 0 9 0 C7 6 7 6 5 8 C0 2.25 0 2.25 0 0 Z " fill="#6A2668" transform="translate(1486,285)"/>
<path d="M0 0 C0.33 0 0.66 0 1 0 C1.05416741 2.72943537 1.09375225 5.45778564 1.125 8.1875 C1.15013672 9.34088867 1.15013672 9.34088867 1.17578125 10.51757812 C1.21266851 14.8149434 0.9958504 18.07901831 -1 22 C-1.95598496 18.88948178 -2.00464846 16.4718815 -1.625 13.25 C-1.52574219 12.38117187 -1.42648437 11.51234375 -1.32421875 10.6171875 C-1.21722656 9.75351562 -1.11023437 8.88984375 -1 8 C-0.90332031 7.19820312 -0.80664062 6.39640625 -0.70703125 5.5703125 C-0.47894832 3.71259353 -0.24061048 1.85613798 0 0 Z " fill="#6C3167" transform="translate(1485,534)"/>
<path d="M0 0 C1.65 0.33 3.3 0.66 5 1 C4.01 1.495 4.01 1.495 3 2 C5.0072908 5.0109362 5.83884224 5.63016497 9 7 C8.67 7.99 8.34 8.98 8 10 C7.29875 9.38125 6.5975 8.7625 5.875 8.125 C2.94222819 5.9572991 0.48817594 4.97344445 -3 4 C-2.01 2.68 -1.02 1.36 0 0 Z " fill="#7E477D" transform="translate(1497,262)"/>
<path d="M0 0 C3.3 0.33 6.6 0.66 10 1 C10 1.99 10 2.98 10 4 C3.49618902 4.36814024 3.49618902 4.36814024 1.0625 2.5625 C0 1 0 1 0 0 Z " fill="#672666" transform="translate(1483,306)"/>
<path d="M0 0 C0.99 0.33 1.98 0.66 3 1 C3 2.98 3 4.96 3 7 C1.35 7.33 -0.3 7.66 -2 8 C-1.47731534 5.23723823 -0.89130413 2.6739124 0 0 Z " fill="#6B2A6B" transform="translate(1497,276)"/>
<path d="M0 0 C2.0245738 1.93254772 3.42105792 3.63158688 5 6 C5 6.99 5 7.98 5 9 C1.70851757 7.86500606 1.0040131 7.00716624 -0.75 3.875 C-1.1625 2.92625 -1.575 1.9775 -2 1 C-1.34 0.67 -0.68 0.34 0 0 Z " fill="#6B2C6A" transform="translate(1469,292)"/>
<path d="M0 0 C0.99 0.33 1.98 0.66 3 1 C1.71937515 2.7074998 0.38232443 4.37373596 -1 6 C-1.66 6 -2.32 6 -3 6 C-3.33 7.65 -3.66 9.3 -4 11 C-4.65234375 9.234375 -4.65234375 9.234375 -5 7 C-4.00390625 5.078125 -4.00390625 5.078125 -2.5625 3.25 C-2.08941406 2.63640625 -1.61632813 2.0228125 -1.12890625 1.390625 C-0.75636719 0.93171875 -0.38382813 0.4728125 0 0 Z " fill="#8A5186" transform="translate(1325,340)"/>
<path d="M0 0 C0 3 0 3 -1 5 C-0.34 5.33 0.32 5.66 1 6 C-2.76624671 7.25541557 -4.37188934 6.37061958 -8 5 C-5.37352812 3.24901874 -2.71224618 1.61268692 0 0 Z " fill="#7A4077" transform="translate(1503,301)"/>
<path d="M0 0 C0.66 0.33 1.32 0.66 2 1 C0.87895467 2.31587941 -0.24696965 3.62760353 -1.375 4.9375 C-2.00148438 5.66839844 -2.62796875 6.39929688 -3.2734375 7.15234375 C-5 9 -5 9 -7 10 C-5.6062718 5.56541027 -3.39417765 3.12621626 0 0 Z " fill="#884D83" transform="translate(556,337)"/>
<path d="M0 0 C0.66 0 1.32 0 2 0 C2.08333357 4.8333472 1.95261487 9.23692563 1 14 C0.67 14 0.34 14 0 14 C-0.19456705 12.04235617 -0.38044247 10.08384679 -0.5625 8.125 C-0.66691406 7.03445312 -0.77132813 5.94390625 -0.87890625 4.8203125 C-1 2 -1 2 0 0 Z " fill="#884E84" transform="translate(1129,218)"/>
<path d="M0 0 C1.07310858 3.27185553 0.89263102 5.42947592 0.0625 8.75 C-0.22947266 9.94882813 -0.22947266 9.94882813 -0.52734375 11.171875 C-0.68332031 11.77515625 -0.83929687 12.3784375 -1 13 C-1.33 12.01 -1.66 11.02 -2 10 C-2.66 10 -3.32 10 -4 10 C-2.8905928 6.51329166 -1.73662334 3.22515763 0 0 Z " fill="#7A5176" transform="translate(1056,103)"/>
<path d="M0 0 C0 1.32 0 2.64 0 4 C-3 6 -3 6 -6 6 C-3.84615385 0 -3.84615385 0 0 0 Z " fill="#6E2D6B" transform="translate(1508,300)"/>
<path d="M0 0 C6.75 0.75 6.75 0.75 9 3 C5.23375329 4.25541557 3.62811066 3.37061958 0 2 C0 1.34 0 0.68 0 0 Z " fill="#70306F" transform="translate(1473,302)"/>
<path d="M0 0 C3 1 3 1 4.203125 2.77734375 C4.54859375 3.49019531 4.8940625 4.20304688 5.25 4.9375 C5.78367187 6.00291016 5.78367187 6.00291016 6.328125 7.08984375 C6.54984375 7.72019531 6.7715625 8.35054687 7 9 C6.67 9.66 6.34 10.32 6 11 C4.99735282 9.35577799 3.99794896 7.70957779 3 6.0625 C2.443125 5.14597656 1.88625 4.22945312 1.3125 3.28515625 C0 1 0 1 0 0 Z " fill="#965D90" transform="translate(1059,174)"/>
<path d="M0 0 C0.99 0 1.98 0 3 0 C2.34 2.64 1.68 5.28 1 8 C-1 5 -1 5 -0.625 2.3125 C-0.41875 1.549375 -0.2125 0.78625 0 0 Z " fill="#723470" transform="translate(1471,268)"/>
<path d="M0 0 C0.33 0 0.66 0 1 0 C1 3.3 1 6.6 1 10 C1.66 10 2.32 10 3 10 C2.67 10.99 2.34 11.98 2 13 C1.34 13 0.68 13 0 13 C0 8.71 0 4.42 0 0 Z " fill="#7D3F7B" transform="translate(1048,127)"/>
<path d="M0 0 C0.66 1.32 1.32 2.64 2 4 C0.02 4 -1.96 4 -4 4 C-4 3.01 -4 2.02 -4 1 C-2.02 1.495 -2.02 1.495 0 2 C0 1.34 0 0.68 0 0 Z " fill="#835981" transform="translate(1499,295)"/>
<path d="M0 0 C0.66 0.33 1.32 0.66 2 1 C1.67 2.65 1.34 4.3 1 6 C0.01 6 -0.98 6 -2 6 C-1.125 1.125 -1.125 1.125 0 0 Z " fill="#6A2867" transform="translate(1510,292)"/>
</svg>
