<?xml version="1.0" encoding="UTF-8"?>
<svg version="1.1" xmlns="http://www.w3.org/2000/svg" width="1645" height="640">
<path d="M0 0 C542.85 0 1085.7 0 1645 0 C1645 211.2 1645 422.4 1645 640 C1102.15 640 559.3 640 0 640 C0 428.8 0 217.6 0 0 Z " fill="#FEFEFE" transform="translate(0,0)"/>
<path d="M0 0 C1.38601541 -0.00266251 1.38601541 -0.00266251 2.80003113 -0.00537882 C5.93754709 -0.0101598 9.07501789 -0.00773597 12.2125361 -0.00541991 C14.4778601 -0.00737098 16.74318377 -0.00975911 19.00850689 -0.01254788 C25.28898243 -0.01898162 31.56944524 -0.01910683 37.84992344 -0.01827047 C43.96026448 -0.01793599 50.07060199 -0.02324435 56.18094082 -0.02792798 C68.83914044 -0.03745342 81.49733785 -0.04214948 94.1555407 -0.04423732 C106.99066354 -0.04636365 119.82578296 -0.05061826 132.66090417 -0.05748004 C133.47036011 -0.05791065 134.27981604 -0.05834127 135.11380095 -0.05878493 C138.4103761 -0.06054322 141.70695125 -0.06231286 145.0035264 -0.06409795 C184.99865514 -0.08571316 224.99378458 -0.09657883 264.98891784 -0.10557419 C277.95540258 -0.10850688 290.92188715 -0.11187659 303.88837171 -0.1155414 C304.80273821 -0.11579969 305.71710472 -0.11605798 306.6591793 -0.1163241 C310.35815419 -0.11737028 314.05712907 -0.11841871 317.75610396 -0.11946992 C381.02632765 -0.13743513 444.2965516 -0.15281563 507.56677748 -0.16022895 C512.5379812 -0.16081293 517.50918493 -0.1614102 522.48038866 -0.16200657 C523.95960916 -0.16218375 523.95960916 -0.16218375 525.46871291 -0.16236451 C535.46007083 -0.16356192 545.45142874 -0.16477068 555.44278665 -0.16599704 C557.44611132 -0.16624227 559.44943599 -0.16648613 561.45276067 -0.16672861 C625.80900722 -0.17452039 690.16523554 -0.19690797 754.52147412 -0.22940504 C800.75441375 -0.25274276 846.98734977 -0.27429863 893.22029519 -0.28141135 C894.64575185 -0.28163188 894.64575185 -0.28163188 896.10000562 -0.28185687 C916.95908239 -0.28504131 937.81815912 -0.28709247 958.67723611 -0.28808442 C967.06957097 -0.28849917 975.46190581 -0.28905407 983.85424066 -0.28964633 C984.77275305 -0.289707 985.69126545 -0.28976766 986.63761155 -0.28983017 C1016.25382594 -0.29184812 1045.87001884 -0.30610091 1075.48622573 -0.32659133 C1105.30727892 -0.34715036 1135.12830725 -0.3550778 1164.94936682 -0.34551357 C1169.06629648 -0.34419503 1173.18322616 -0.34301701 1177.30015588 -0.34192294 C1178.51075232 -0.34159317 1178.51075232 -0.34159317 1179.74580525 -0.34125673 C1192.54708907 -0.33813721 1205.34832548 -0.34848904 1218.1495983 -0.36439849 C1230.72420425 -0.37974877 1243.29874435 -0.38093431 1255.87335254 -0.36685025 C1262.60542471 -0.35970272 1269.33732321 -0.35944527 1276.06938311 -0.37641034 C1282.18497503 -0.39169724 1288.30026969 -0.38881852 1294.41585229 -0.37100006 C1296.62290905 -0.36783142 1298.8299879 -0.37147214 1301.03701942 -0.38249181 C1304.02013627 -0.39642467 1307.00218906 -0.38594726 1309.98526764 -0.36914349 C1310.84546646 -0.37906086 1311.70566528 -0.38897823 1312.59193074 -0.39919613 C1317.9557118 -0.33502952 1320.97609158 0.58809599 1325.24333215 4.12880117 C1330.98003807 10.48569151 1330.48580808 16.12348478 1330.55583215 24.31630117 C1330.59933801 25.98402578 1330.59933801 25.98402578 1330.64372277 27.68544179 C1330.69744857 34.66566308 1330.06646123 39.22908039 1326.24333215 45.12880117 C1320.34938466 49.81990223 1315.68369566 50.2746331 1308.38170189 50.25645167 C1307.45849681 50.25810245 1306.53529173 50.25975322 1305.58411075 50.26145403 C1302.45536961 50.26580685 1299.3266749 50.26296902 1296.19793248 50.26022893 C1293.93655932 50.26187725 1291.67518644 50.26396291 1289.41381404 50.26644903 C1283.14896949 50.27204245 1276.88413854 50.27133841 1270.61929228 50.26967144 C1264.5227374 50.26901828 1258.42618721 50.27304481 1252.32963384 50.27693546 C1239.70110382 50.28481988 1227.07257663 50.28789806 1214.44404435 50.2883814 C1201.63998042 50.28888326 1188.83591966 50.29152482 1176.03185678 50.29678899 C1174.82037457 50.29728419 1174.82037457 50.29728419 1173.58441797 50.2977894 C1170.29515164 50.29913934 1167.00588533 50.30050201 1163.71661902 50.3018815 C1124.74413522 50.31819729 1085.77165202 50.32457164 1046.79916539 50.32932937 C1027.39992827 50.33171105 1008.00069151 50.33541421 988.60145466 50.33936647 C926.4023283 50.35203159 864.20320194 50.36281584 802.00407431 50.36620693 C799.03036788 50.36636917 796.05666146 50.36653473 793.08295503 50.36670131 C787.11895633 50.36703511 781.15495762 50.36736559 775.19095892 50.36769587 C768.20829103 50.36808277 761.22562314 50.36847238 754.24295524 50.36886693 C752.24444514 50.36897935 750.24593503 50.36909077 748.24742492 50.36920119 C684.04344869 50.37275167 619.83948365 50.38783401 555.6355117 50.41113893 C509.51012258 50.42787486 463.38473557 50.44335319 417.25934339 50.44787389 C415.83720911 50.44801412 415.83720911 50.44801412 414.38634484 50.44815718 C393.57593128 50.45017599 372.76551775 50.45133223 351.95510409 50.45168577 C344.50919498 50.45182195 337.06328587 50.45203094 329.61737676 50.45227902 C327.76494439 50.45234058 325.91251201 50.4523989 324.06007964 50.45245397 C294.51365547 50.45337468 264.96724296 50.46335357 235.42082263 50.47791146 C205.67066916 50.4925111 175.92053001 50.49757942 146.17037359 50.48949191 C142.06325265 50.48837647 137.95613169 50.48736582 133.84901071 50.48641759 C133.04386997 50.48622762 132.23872924 50.48603766 131.40919031 50.48584193 C118.63848235 50.48310371 105.86780079 50.49046488 93.09709857 50.50199096 C80.55253549 50.5131043 68.00800988 50.51359064 55.46344624 50.50262077 C48.74750847 50.49704201 42.03167425 50.49662847 35.31573793 50.50912949 C29.21481806 50.52039166 23.11406626 50.51802933 17.01315248 50.50446242 C14.81139394 50.50201229 12.60962278 50.50466856 10.40787811 50.5128589 C7.43204439 50.52320732 4.45681457 50.51524902 1.48100655 50.50254732 C0.62290697 50.50995582 -0.23519596 50.51736432 -1.119302 50.52499731 C-6.76056358 50.47407575 -11.0729003 49.57670316 -15.4011991 45.62880117 C-20.62558998 38.91921556 -20.00484825 33.03634679 -20.06916785 24.81630117 C-20.09817176 23.59233632 -20.12717566 22.36837148 -20.15705848 21.10731679 C-20.23621124 9.91024457 -20.23621124 9.91024457 -15.75666785 5.12880117 C-10.36267497 0.37695029 -7.03267972 -0.01646532 0 0 Z " fill="#732271" transform="translate(155.75666785240173,513.8711988329887)"/>
<path d="M0 0 C1.18462326 -0.0071553 2.36924652 -0.01431061 3.58976746 -0.02168274 C4.90140869 -0.02437164 6.21304993 -0.02706055 7.56443787 -0.02983093 C8.95060396 -0.03609303 10.33676836 -0.0427396 11.72293091 -0.04974365 C15.50014202 -0.06718404 19.27734044 -0.07771496 23.05458188 -0.08594918 C25.4150313 -0.09109587 27.77547676 -0.09717194 30.13592339 -0.10346031 C37.52240348 -0.12252603 44.90887352 -0.13675081 52.2953735 -0.14507228 C60.81858734 -0.15483259 69.34154063 -0.18111453 77.86466271 -0.22157317 C84.45244138 -0.25176943 91.04014557 -0.26654471 97.62799209 -0.26985329 C101.56198317 -0.27220099 105.49569636 -0.28112358 109.42961311 -0.30631447 C113.13558915 -0.32966004 116.8411057 -0.33380272 120.54713631 -0.32355309 C122.54711475 -0.32282449 124.54707019 -0.34187303 126.54695129 -0.36161804 C134.20516197 -0.3174642 140.15196689 0.14838646 146.05422306 5.52375317 C151.31903907 11.30957908 151.86938953 17.51614027 151.94895935 24.94795227 C151.9603595 25.78376328 151.97175964 26.61957428 151.98350525 27.48071289 C152.00232605 29.24309792 152.01544161 31.00555208 152.0231781 32.76802063 C152.04258038 35.44189731 152.10467833 38.11268729 152.16770935 40.7858429 C152.35878205 56.24662821 152.35878205 56.24662821 147.13059998 62.77290344 C145.54270935 64.14717102 145.54270935 64.14717102 142.54270935 65.14717102 C142.54270935 65.80717102 142.54270935 66.46717102 142.54270935 67.14717102 C143.55333435 67.20904602 144.56395935 67.27092102 145.60520935 67.33467102 C150.20821392 68.02418992 153.20984233 69.96838581 156.54270935 73.14717102 C161.29772487 80.34591419 161.12615491 86.97300041 161.07395935 95.42842102 C161.0766596 96.81030042 161.08054643 98.19217795 161.08555603 99.5740509 C161.09142622 102.45879857 161.08296954 105.34304806 161.06419373 108.22773743 C161.04140456 111.9062542 161.05454119 115.58360329 161.07848358 119.26207733 C161.09300961 122.11220432 161.08830479 124.96205917 161.07797241 127.81219482 C161.07404578 129.82168851 161.08609103 131.83119323 161.09849548 133.84065247 C161.01294641 142.21926901 160.35687746 148.2270538 154.29270935 154.45967102 C146.02713527 159.53172784 138.55854825 159.57505328 129.08030701 159.51948547 C127.62425985 159.52191664 126.16821437 159.52563911 124.71217346 159.5305481 C120.77866392 159.53991127 116.84540517 159.53057313 112.9119153 159.51721597 C108.79156254 159.50586477 104.67122146 159.51001148 100.55085754 159.51196289 C93.63940856 159.51284411 86.72805799 159.50179653 79.81663513 159.48335266 C71.82077554 159.46213739 63.82505955 159.45868681 55.8291775 159.46491462 C48.13406323 159.47060154 40.43899963 159.46497382 32.74389267 159.45374107 C29.46880026 159.44909128 26.19373878 159.4482228 22.91864395 159.45032692 C19.0690329 159.45220557 15.21956883 159.44413882 11.3699913 159.42826653 C9.95500547 159.42401261 8.54000476 159.42318053 7.12501526 159.42595673 C5.19934931 159.42916274 3.27367473 159.41890096 1.34803772 159.40786743 C0.26886896 159.40581456 -0.8102998 159.40376169 -1.92217064 159.40164661 C-4.45729065 159.14717102 -4.45729065 159.14717102 -6.45729065 157.14717102 C-6.70617962 154.46755886 -6.70617962 154.46755886 -6.70452881 150.99102783 C-6.7087233 149.67711563 -6.71291779 148.36320343 -6.71723938 147.00947571 C-6.71175548 145.54487537 -6.70607248 144.08027576 -6.70021057 142.61567688 C-6.70128298 141.0800773 -6.70322105 139.54447812 -6.70596313 138.00888062 C-6.71082078 133.83133942 -6.70314469 129.65390462 -6.69301009 125.4763763 C-6.68424591 121.11261914 -6.68598671 116.74886548 -6.68637085 112.38510132 C-6.68543355 105.05699374 -6.67674026 97.7289275 -6.6631012 90.40083313 C-6.64736913 81.91659662 -6.64210325 73.43240539 -6.64283675 64.94815534 C-6.64344614 56.80028523 -6.63834922 48.65242995 -6.63004494 40.50456429 C-6.62650549 37.03048652 -6.62468075 33.556414 -6.62415123 30.08233452 C-6.62314999 25.99564506 -6.61707145 21.90899394 -6.60698509 17.82231712 C-6.60405321 16.31822189 -6.6028361 14.81412224 -6.60341263 13.31002426 C-6.60389994 11.26545557 -6.59765437 9.2208885 -6.59100342 7.17633057 C-6.58932757 6.02945235 -6.58765173 4.88257414 -6.5859251 3.70094204 C-6.3526792 -0.929673 -4.10670147 0.01694261 0 0 Z " fill="#762774" transform="translate(939.4572906494141,335.8528289794922)"/>
<path d="M0 0 C1.26442932 -0.00817749 2.52885864 -0.01635498 3.831604 -0.02478027 C7.99782229 -0.05079555 12.16404967 -0.06627835 16.33032227 -0.08056641 C17.7714291 -0.08593286 19.2125359 -0.09131038 20.65364265 -0.09669876 C26.64935534 -0.11828946 32.64506554 -0.13702544 38.64080715 -0.14832115 C47.20292077 -0.16456588 55.76458129 -0.19779963 64.3265242 -0.254722 C70.36584193 -0.29349363 76.40503875 -0.31296181 82.44447762 -0.31824172 C86.04369692 -0.32188276 89.64243064 -0.33377143 93.24151421 -0.36634445 C97.25763608 -0.40217878 101.27278745 -0.39803604 105.2890625 -0.390625 C106.4690834 -0.40703033 107.64910431 -0.42343567 108.86488342 -0.44033813 C116.85983686 -0.38004624 122.93195643 1.09676264 128.82672787 6.74186134 C132.62437363 11.07106492 133.33399113 14.36573575 133.34294128 19.9690094 C133.34933876 21.77569595 133.34933876 21.77569595 133.35586548 23.61888123 C133.35551596 24.95547489 133.35505443 26.29206852 133.35449219 27.62866211 C133.35748394 29.03470957 133.3608865 30.44075621 133.3646698 31.84680176 C133.37351029 35.66688889 133.37584787 39.48695362 133.37648559 43.30704999 C133.37743445 46.49320524 133.38111231 49.67935526 133.38465768 52.8655085 C133.39280168 60.37884755 133.39524189 67.89217462 133.39453125 75.40551758 C133.39392979 83.16552598 133.40449536 90.92546502 133.42027491 98.68545586 C133.43333008 105.34197142 133.43871603 111.99846425 133.43807584 118.65499252 C133.43782035 122.63338308 133.44069999 126.61171195 133.45125389 130.5900898 C133.46090144 134.32880867 133.46103723 138.06740643 133.45373726 141.80612946 C133.45268738 143.18080509 133.45507805 144.55548813 133.46109772 145.93015099 C133.46876322 147.8013244 133.46299829 149.67253871 133.45646667 151.54371643 C133.45701144 152.59250756 133.45755621 153.64129869 133.45811749 154.72187138 C133.20922852 157.19287109 133.20922852 157.19287109 131.20922852 159.19287109 C128.63995821 159.38016862 126.18048875 159.44861752 123.61157227 159.42333984 C122.48737633 159.42265251 122.48737633 159.42265251 121.34046936 159.42195129 C119.75593482 159.4189292 118.17140325 159.41104416 116.58691406 159.39868164 C114.15296993 159.38041793 111.7194059 159.37817199 109.28540039 159.37841797 C107.74828771 159.3735031 106.21117761 159.36767492 104.67407227 159.36083984 C103.94179916 159.35972702 103.20952606 159.3586142 102.45506287 159.35746765 C97.3252809 159.30892348 97.3252809 159.30892348 96.20922852 158.19287109 C96.11618834 156.71932761 96.09176586 155.24136519 96.09570312 153.76489258 C96.09582397 152.81078491 96.09594482 151.85667725 96.09606934 150.87365723 C96.1011853 149.86395874 96.10630127 148.85426025 96.11157227 147.81396484 C96.11257935 146.89103638 96.11358643 145.96810791 96.11462402 145.01721191 C96.11987358 141.55491908 96.13383471 138.0926439 96.14672852 134.63037109 C96.16735352 126.89599609 96.18797852 119.16162109 96.20922852 111.19287109 C65.84922852 111.19287109 35.48922852 111.19287109 4.20922852 111.19287109 C4.20922852 126.37287109 4.20922852 141.55287109 4.20922852 157.19287109 C1.20922852 160.19287109 1.20922852 160.19287109 -2.34423828 160.53344727 C-3.80957479 160.53297327 -5.27496575 160.51608151 -6.73999023 160.48583984 C-7.51260696 160.481595 -8.28522369 160.47735016 -9.08125305 160.47297668 C-11.54728141 160.45619292 -14.01249044 160.41854257 -16.47827148 160.38037109 C-18.15078572 160.36532381 -19.82331277 160.35163547 -21.49584961 160.33935547 C-25.59447226 160.30629056 -29.69248299 160.25451138 -33.79077148 160.19287109 C-33.86089164 141.53852352 -33.91377439 122.88420273 -33.946208 104.22975063 C-33.9616686 95.56791716 -33.98274269 86.90616564 -34.01708984 78.24438477 C-34.04701692 70.69366798 -34.06635235 63.14301055 -34.07303697 55.5922361 C-34.07694363 51.59514743 -34.08610795 47.59822856 -34.10796165 43.60119438 C-34.12837914 39.83621081 -34.13459472 36.0714664 -34.13009453 32.30643272 C-34.13091738 30.92739816 -34.13685178 29.5483553 -34.14838791 28.16936874 C-34.21715472 19.52244154 -34.25655912 13.20588835 -28.41577148 6.44287109 C-19.92642402 -0.83371245 -10.69732174 0.03855186 0 0 Z " fill="#7A2B77" transform="translate(387.790771484375,333.80712890625)"/>
<path d="M0 0 C1.95275597 -0.01292336 1.95275597 -0.01292336 3.94496155 -0.02610779 C7.49683357 -0.04850573 11.04825796 -0.04568449 14.60017347 -0.03678632 C17.57460058 -0.03165527 20.54894512 -0.03898625 23.52336371 -0.04625839 C30.54576071 -0.06322765 37.56794027 -0.05972259 44.59033203 -0.04296875 C51.81368503 -0.02605727 59.03643326 -0.04187479 66.25972021 -0.07419163 C72.48083833 -0.10096126 78.70176905 -0.10814354 84.92293894 -0.09967655 C88.62998989 -0.09476782 92.33667737 -0.09685008 96.0436821 -0.11746407 C100.18184386 -0.13937629 104.31887355 -0.12033979 108.45703125 -0.09765625 C109.67085983 -0.10934845 110.88468842 -0.12104065 112.13529968 -0.13308716 C120.32277156 -0.04205447 127.34319541 1.37691984 133.54018211 7.08225155 C137.31679557 11.39507652 137.98290968 14.78731501 137.9848938 20.35427856 C137.98771362 21.56859558 137.99053345 22.7829126 137.99343872 24.0340271 C137.99149439 25.38165298 137.98944622 26.72927871 137.98730469 28.0769043 C137.98865952 29.49442591 137.99043991 30.91194718 137.99261475 32.32946777 C137.99717853 36.18048288 137.99540406 40.03147124 137.99223566 43.88248682 C137.98970762 47.90724416 137.99205075 51.93199917 137.99362183 55.95675659 C137.9954418 62.71393242 137.99304128 69.47109732 137.98828125 76.22827148 C137.98283456 84.0507638 137.98460493 91.87323006 137.99010766 99.69572175 C137.99463844 106.40402485 137.99528964 113.11232009 137.99266899 119.82062423 C137.99110658 123.83082054 137.99091153 127.84100458 137.99420547 131.8512001 C137.99708383 135.6186165 137.99510917 139.38599913 137.98931122 143.15341187 C137.98798362 144.53979308 137.98837774 145.92617711 137.99057388 147.31255722 C137.99328523 149.19723157 137.98929071 151.08191209 137.9848938 152.96658325 C137.98432826 154.55221416 137.98432826 154.55221416 137.9837513 156.16987801 C137.85791016 158.53344727 137.85791016 158.53344727 136.85791016 159.53344727 C134.19189476 159.62199074 131.55121616 159.64876626 128.88525391 159.63110352 C128.17856567 159.63009644 127.47187744 159.62908936 126.74377441 159.62805176 C124.09430324 159.62280472 121.44485513 159.60884355 118.79541016 159.59594727 C112.87603516 159.57532227 106.95666016 159.55469727 100.85791016 159.53344727 C100.52791016 144.02344727 100.19791016 128.51344727 99.85791016 112.53344727 C69.82791016 112.20344727 39.79791016 111.87344727 8.85791016 111.53344727 C8.89751806 126.95619413 8.89751806 126.95619413 8.94799805 142.37890625 C8.95091707 144.30411728 8.95346566 146.22932892 8.95556641 148.15454102 C8.96068237 149.1642395 8.96579834 150.17393799 8.97106934 151.2142334 C8.97125061 152.6453949 8.97125061 152.6453949 8.97143555 154.10546875 C8.97365616 154.93819809 8.97587677 155.77092743 8.97816467 156.62889099 C8.85791016 158.53344727 8.85791016 158.53344727 7.85791016 159.53344727 C5.28771531 159.64676819 2.74539538 159.69762212 0.17431641 159.70141602 C-0.59638687 159.70474442 -1.36709015 159.70807281 -2.16114807 159.71150208 C-3.79451906 159.71657437 -5.42790044 159.71891031 -7.0612793 159.71875 C-9.56560284 159.72093506 -12.06948505 159.73908322 -14.57373047 159.75805664 C-16.15771333 159.76099074 -17.74169829 159.76297543 -19.32568359 159.76391602 C-20.07780624 159.77110153 -20.82992889 159.77828705 -21.60484314 159.78569031 C-26.91326705 159.76227006 -26.91326705 159.76227006 -29.14208984 157.53344727 C-29.39656544 155.10485554 -29.39656544 155.10485554 -29.40278625 151.98713684 C-29.40987106 150.80810791 -29.41695587 149.62907898 -29.42425537 148.4143219 C-29.42177795 147.11405563 -29.41930054 145.81378937 -29.41674805 144.47412109 C-29.42109358 143.096036 -29.4262762 141.71795333 -29.43223572 140.33987427 C-29.44565938 136.58961521 -29.44620029 132.83945673 -29.44367242 129.08917832 C-29.4426042 125.95821591 -29.44748264 122.82727398 -29.45227784 119.69631594 C-29.46338632 112.30599201 -29.46380402 104.91571888 -29.45776367 97.52539062 C-29.45776367 89.9069006 -29.46401041 82.28859566 -29.48533374 74.67013723 C-29.50296933 68.12820377 -29.50894771 61.58632909 -29.505696 55.04437274 C-29.50388488 51.13788147 -29.50650137 47.23152198 -29.52041054 43.32505226 C-29.53301488 39.64701033 -29.53102035 35.96925549 -29.51799965 32.2912178 C-29.51451727 30.30420937 -29.52579488 28.31719207 -29.53756714 26.33021545 C-29.49116172 18.43669635 -29.05642473 13.11391584 -23.95458984 6.84594727 C-16.1823648 0.45545111 -9.78134896 -0.05241243 0 0 Z " fill="#792A77" transform="translate(769.14208984375,333.466552734375)"/>
<path d="M0 0 C4.33125 -0.12375 4.33125 -0.12375 8.75 -0.25 C9.65331055 -0.28641602 10.55662109 -0.32283203 11.48730469 -0.36035156 C17.38412637 -0.44206881 17.38412637 -0.44206881 20.546875 1.828125 C22.53179475 4.79483301 22.5833135 6.50011898 22 10 C20.125 12.375 20.125 12.375 18 14 C17.34 14 16.68 14 16 14 C16.5053125 14.69867188 17.010625 15.39734375 17.53125 16.1171875 C18.50578125 17.48230469 18.50578125 17.48230469 19.5 18.875 C20.1496875 19.77992188 20.799375 20.68484375 21.46875 21.6171875 C23 24 23 24 23 26 C20.2265625 26.30859375 20.2265625 26.30859375 17 26 C15.0234375 23.84765625 15.0234375 23.84765625 13.375 21.0625 C11.30393903 17.28480233 11.30393903 17.28480233 7.7890625 15.18359375 C7.19867187 15.12300781 6.60828125 15.06242187 6 15 C6.01160156 15.71027344 6.02320313 16.42054688 6.03515625 17.15234375 C6.04869141 18.53099609 6.04869141 18.53099609 6.0625 19.9375 C6.07410156 20.85402344 6.08570313 21.77054687 6.09765625 22.71484375 C6 25 6 25 5 26 C3.35 26 1.7 26 0 26 C0 17.42 0 8.84 0 0 Z " fill="#7F477D" transform="translate(1478,273)"/>
<path d="M0 0 C1.90869118 -0.00744736 1.90869118 -0.00744736 3.85594177 -0.01504517 C7.32463378 -0.02807558 10.79330654 -0.03459408 14.26201916 -0.03905582 C16.43101188 -0.04199796 18.59999946 -0.04610456 20.76898956 -0.05056 C27.56170364 -0.06420182 34.35440582 -0.07388819 41.14713264 -0.07776189 C48.97863821 -0.08225361 56.8099702 -0.0998667 64.64142299 -0.12876248 C70.70614375 -0.15036182 76.77081556 -0.16046501 82.83557439 -0.16180301 C86.45405736 -0.16285104 90.07237641 -0.16876003 93.69081879 -0.18662262 C97.71976856 -0.20613011 101.74835205 -0.20182145 105.77734375 -0.1953125 C106.97534103 -0.20452728 108.17333832 -0.21374207 109.40763855 -0.22323608 C110.50383011 -0.21766693 111.60002167 -0.21209778 112.72943115 -0.20635986 C114.15737314 -0.2085597 114.15737314 -0.2085597 115.61416245 -0.21080399 C118.55105666 0.22340128 119.93519237 1.21124865 122.12988281 3.16113281 C121.40689373 3.15836743 120.68390465 3.15560205 119.93900681 3.15275288 C102.35428641 3.08652541 84.76959766 3.03686803 67.18478012 3.0056963 C58.68092116 2.99022155 50.1771454 2.96912046 41.67333984 2.93481445 C34.26218716 2.90493065 26.85109473 2.88556223 19.43988347 2.87886733 C15.51498917 2.87495332 11.59026726 2.86574238 7.66542816 2.84394264 C3.97186019 2.82359349 0.27853577 2.81729577 -3.41508293 2.82180977 C-5.41821776 2.8205898 -7.42132601 2.80443943 -9.4243927 2.78787231 C-11.21223427 2.7940583 -11.21223427 2.7940583 -13.03619385 2.80036926 C-14.07228916 2.79760388 -15.10838448 2.7948385 -16.17587662 2.79198933 C-19.2606199 3.2146364 -20.53402248 4.17380163 -22.87011719 6.16113281 C-23.55074219 6.28488281 -24.23136719 6.40863281 -24.93261719 6.53613281 C-27.83490162 7.4723536 -28.42164098 9.59337953 -29.87011719 12.16113281 C-30.53011719 12.16113281 -31.19011719 12.16113281 -31.87011719 12.16113281 C-30.57161437 8.14260831 -29.2646383 6.24112937 -25.74511719 3.91113281 C-25.02066406 3.41097656 -24.29621094 2.91082031 -23.54980469 2.39550781 C-16.43710738 -0.88089503 -7.66181092 0.00719793 0 0 Z " fill="#A06F9C" transform="translate(387.8701171875,333.8388671875)"/>
<path d="M0 0 C4.62 0 9.24 0 14 0 C14 0.66 14 1.32 14 2 C14.66 2.33 15.32 2.66 16 3 C12.7 3.33 9.4 3.66 6 4 C5.7834375 5.60875 5.7834375 5.60875 5.5625 7.25 C5.16250558 9.91662949 4.72408076 12.41399729 4 15 C4.33 15 4.66 15 5 15 C5 18.63 5 22.26 5 26 C3.35 26 1.7 26 0 26 C0 17.42 0 8.84 0 0 Z " fill="#7C427A" transform="translate(1478,273)"/>
<path d="M0 0 C0.33 0 0.66 0 1 0 C1 1.65 1 3.3 1 5 C1.99 4.67 2.98 4.34 4 4 C4.33 3.34 4.66 2.68 5 2 C5.66 2 6.32 2 7 2 C3.5289016 13.3691049 -3.76804309 22.75096668 -11 32 C-11 28.11682649 -9.60276585 26.15971195 -7.75 22.75 C-3.89206959 15.41671158 -1.81946739 8.06894232 0 0 Z " fill="#7D4179" transform="translate(1082,250)"/>
<path d="M0 0 C1.32 1.65 2.64 3.3 4 5 C-11.14893617 20.34042553 -11.14893617 20.34042553 -18 26 C-18.66 25.67 -19.32 25.34 -20 25 C-19.28714844 24.24976563 -18.57429688 23.49953125 -17.83984375 22.7265625 C-11.97573361 16.48524689 -6.68566394 10.19925627 -2 3 C-1.34 2.01 -0.68 1.02 0 0 Z " fill="#7F547C" transform="translate(1094,285)"/>
<path d="M0 0 C2.97 0 5.94 0 9 0 C9.061875 0.680625 9.12375 1.36125 9.1875 2.0625 C10.1454926 5.52601171 11.74989403 7.64929804 13.94140625 10.44921875 C15 12 15 12 15 14 C12.234375 14.296875 12.234375 14.296875 9 14 C6.953125 11.953125 6.953125 11.953125 5.25 9.25 C4.67765625 8.36828125 4.1053125 7.4865625 3.515625 6.578125 C2.2556321 4.4348381 1.11186877 2.22373755 0 0 Z " fill="#662864" transform="translate(1486,285)"/>
<path d="M0 0 C2.24606427 1.77444972 2.95081002 2.58352485 3.29296875 5.48046875 C3.25816406 6.37378906 3.22335937 7.26710938 3.1875 8.1875 C3.16042969 9.08855469 3.13335938 9.98960937 3.10546875 10.91796875 C3.07066406 11.60503906 3.03585937 12.29210937 3 13 C1.68 13 0.36 13 -1 13 C-1.02686553 11.02090602 -1.04633375 9.04171029 -1.0625 7.0625 C-1.07410156 5.96035156 -1.08570313 4.85820312 -1.09765625 3.72265625 C-1 1 -1 1 0 0 Z " fill="#652264" transform="translate(1480,285)"/>
<path d="M0 0 C1.32 0.66 2.64 1.32 4 2 C2.38012331 4.31624435 0.75444257 6.62800082 -0.875 8.9375 C-1.33519531 9.59685547 -1.79539062 10.25621094 -2.26953125 10.93554688 C-5.7734375 15.88671875 -5.7734375 15.88671875 -8 17 C-6.51095825 13.10391502 -4.75621287 9.40902982 -2.875 5.6875 C-2.06675781 4.08455078 -2.06675781 4.08455078 -1.2421875 2.44921875 C-0.62730469 1.23685547 -0.62730469 1.23685547 0 0 Z " fill="#82597E" transform="translate(1078,265)"/>
<path d="M0 0 C1.32 1.65 2.64 3.3 4 5 C0.92000054 8.67230705 -1.2482602 9.56802365 -6 10 C-5.18957164 8.51969728 -4.37659652 7.04078858 -3.5625 5.5625 C-2.88380859 4.32693359 -2.88380859 4.32693359 -2.19140625 3.06640625 C-1 1 -1 1 0 0 Z " fill="#7B4279" transform="translate(1094,285)"/>
<path d="M0 0 C2.97 0 5.94 0 9 0 C7 6 7 6 5 8 C0 2.25 0 2.25 0 0 Z " fill="#6A2668" transform="translate(1486,285)"/>
<path d="M0 0 C3 1 3 1 4.203125 2.77734375 C4.54859375 3.49019531 4.8940625 4.20304688 5.25 4.9375 C5.78367187 6.00291016 5.78367187 6.00291016 6.328125 7.08984375 C6.54984375 7.72019531 6.7715625 8.35054687 7 9 C6.67 9.66 6.34 10.32 6 11 C4.99735282 9.35577799 3.99794896 7.70957779 3 6.0625 C2.443125 5.14597656 1.88625 4.22945312 1.3125 3.28515625 C0 1 0 1 0 0 Z " fill="#965D90" transform="translate(1059,174)"/>
</svg>
