<?xml version="1.0" standalone="no"?>
<!DOCTYPE svg PUBLIC "-//W3C//DTD SVG 20010904//EN"
 "http://www.w3.org/TR/2001/REC-SVG-20010904/DTD/svg10.dtd">
<svg version="1.0" xmlns="http://www.w3.org/2000/svg"
 width="1179.000000pt" height="502.000000pt" viewBox="0 0 1179.000000 502.000000"
 preserveAspectRatio="xMidYMid meet">

<g transform="translate(0.000000,502.000000) scale(0.100000,-0.100000)"
fill="#000000" stroke="none">
<path d="M0 2510 l0 -2510 5895 0 5895 0 0 2510 0 2510 -5895 0 -5895 0 0
-2510z m7845 2279 c4 -5 0 -18 -9 -28 -9 -10 -16 -25 -16 -35 0 -9 -7 -19 -15
-22 -10 -4 -15 -20 -15 -44 0 -21 -5 -40 -12 -42 -14 -5 -12 -308 3 -322 5 -6
9 -25 9 -43 0 -21 6 -36 15 -39 10 -4 15 -20 15 -44 0 -24 5 -40 15 -44 8 -3
15 -14 15 -24 0 -11 7 -25 15 -32 8 -7 15 -20 15 -30 0 -10 7 -23 15 -30 8 -7
15 -19 15 -28 0 -8 11 -25 25 -38 14 -13 25 -32 25 -42 0 -11 7 -22 15 -26 9
-3 15 -18 15 -39 0 -19 7 -40 15 -47 10 -8 15 -31 15 -70 0 -38 5 -62 15 -70
17 -14 14 -82 -3 -88 -8 -2 -12 -28 -12 -68 0 -48 -4 -66 -15 -70 -9 -4 -15
-19 -15 -39 0 -18 -7 -38 -15 -45 -8 -7 -15 -20 -15 -29 0 -10 -11 -28 -25
-41 -14 -13 -25 -29 -25 -36 0 -7 -13 -29 -30 -47 -16 -19 -30 -40 -30 -46 0
-14 -206 -221 -219 -221 -26 0 -15 22 34 72 30 31 55 62 55 70 0 8 14 27 30
43 17 16 30 37 30 47 0 10 7 21 15 24 10 4 15 20 15 44 0 24 5 40 15 44 9 3
15 18 15 40 0 19 5 38 10 41 6 4 10 75 10 181 0 109 -4 174 -10 174 -5 0 -10
18 -10 39 0 25 -5 41 -15 45 -9 3 -15 19 -15 41 0 22 -6 38 -15 41 -8 4 -15
16 -15 29 0 13 -7 25 -15 29 -9 3 -15 18 -15 39 0 19 -7 40 -15 47 -8 7 -15
21 -15 31 0 10 -4 21 -10 24 -5 3 -10 21 -10 39 0 18 -7 41 -15 52 -21 28 -22
346 0 364 8 7 15 28 15 46 0 19 5 34 10 34 6 0 10 8 10 19 0 10 7 24 15 31 8
7 15 20 15 30 0 10 7 23 15 30 8 7 15 19 15 27 0 15 39 63 52 63 4 0 10 -5 13
-11z m-310 -368 c7 -12 -12 -24 -25 -16 -11 7 -4 25 10 25 5 0 11 -4 15 -9z
m-27 -85 c2 -22 -2 -45 -11 -54 -17 -20 -16 -77 1 -94 7 -7 12 -34 12 -60 0
-34 5 -50 15 -54 8 -4 15 -16 15 -29 0 -13 7 -25 15 -29 8 -3 15 -13 15 -23 0
-10 11 -30 25 -45 14 -15 25 -32 25 -38 0 -7 27 -40 60 -74 33 -35 60 -69 60
-77 0 -8 5 -20 10 -25 6 -6 13 -24 16 -40 3 -16 9 -33 15 -38 12 -13 12 -206
-1 -206 -5 0 -10 -15 -10 -34 0 -18 -7 -39 -15 -46 -8 -7 -15 -20 -15 -30 0
-10 -7 -23 -15 -30 -8 -7 -15 -21 -15 -32 0 -10 -7 -21 -15 -24 -8 -4 -15 -15
-15 -25 0 -25 -38 -62 -56 -55 -14 5 -9 36 7 36 5 0 9 8 9 19 0 10 7 24 15 31
10 9 15 32 15 75 0 47 4 64 15 69 11 4 15 21 15 59 0 36 -5 59 -15 67 -9 8
-15 30 -15 60 0 33 -5 50 -15 54 -8 3 -15 14 -15 24 0 11 -7 25 -15 32 -8 7
-15 20 -15 29 0 10 -11 28 -25 41 -14 13 -25 32 -25 42 0 10 -7 21 -15 24 -8
4 -15 17 -15 30 0 14 -7 27 -15 30 -8 4 -15 16 -15 29 0 13 -7 25 -15 29 -8 3
-15 14 -15 24 0 11 -7 25 -15 32 -12 10 -15 39 -15 140 0 101 3 130 15 140 8
7 15 27 15 45 0 59 33 60 38 1z m-1014 -716 c35 -35 35 -35 35 -125 0 -89 0
-90 -33 -124 l-34 -33 -551 -1 -551 0 -25 23 c-14 13 -25 31 -25 41 0 9 -4 19
-9 21 -9 3 -14 45 -12 103 1 22 14 44 44 76 24 26 50 49 58 52 8 3 251 5 541
4 l527 -2 35 -35z m4101 -341 c4 -5 18 -14 31 -19 14 -6 24 -18 24 -29 0 -10
7 -21 15 -25 10 -3 15 -19 15 -45 0 -22 5 -41 13 -44 10 -3 10 -9 0 -26 -7
-11 -13 -34 -13 -50 0 -21 -11 -38 -40 -65 -39 -35 -42 -36 -119 -36 -55 0
-84 4 -93 14 -8 8 -23 15 -33 18 -11 2 -25 14 -31 26 -6 13 -17 29 -23 35 -6
6 -11 43 -11 83 l0 73 48 49 47 50 82 1 c48 1 85 -3 88 -10z m-3203 -106 c37
-36 38 -39 38 -110 0 -70 -1 -74 -35 -108 l-36 -35 -1431 0 c-1323 0 -1434 1
-1470 17 -22 10 -38 24 -38 34 0 9 -7 22 -15 29 -10 8 -15 31 -15 65 0 38 4
55 15 59 8 3 15 13 15 23 0 9 10 27 22 40 l21 23 1446 0 1445 0 38 -37z
m-6054 -399 c5 -10 7 -186 4 -423 -4 -355 -3 -408 11 -419 10 -9 49 -12 133
-10 l119 3 5 305 c3 168 7 306 8 308 1 1 62 2 136 2 99 0 136 -3 145 -13 7 -9
12 -111 13 -308 l3 -294 125 0 125 0 5 430 c3 237 7 431 8 433 1 1 65 2 141 2
117 0 140 -2 145 -16 3 -9 6 -239 6 -512 l0 -496 -52 -53 -52 -53 -254 0 -254
0 -44 43 c-52 48 -66 52 -74 17 -4 -17 -14 -26 -30 -28 -14 -2 -29 -10 -33
-18 -7 -11 -55 -14 -265 -14 l-256 0 -38 37 -38 37 0 521 c0 287 3 525 7 528
3 4 59 7 124 7 99 0 119 -3 127 -16z m2362 1 c7 -8 20 -15 29 -15 9 0 24 -9
34 -20 16 -19 17 -60 15 -548 l-3 -527 -125 0 -125 0 -5 165 -5 165 -285 3
c-157 1 -295 0 -307 -3 -23 -5 -23 -8 -23 -164 0 -136 -2 -160 -16 -165 -9 -3
-69 -6 -134 -6 -98 0 -119 3 -124 16 -3 9 -6 239 -6 512 l0 496 52 53 52 53
482 0 c416 0 483 -2 494 -15z m1368 -99 c2 -81 -1 -112 -10 -118 -7 -4 -197
-8 -421 -8 l-408 0 3 -102 3 -103 401 -3 c341 -2 404 -4 414 -17 7 -8 18 -15
24 -15 6 -1 21 -17 34 -36 21 -34 22 -43 22 -288 l0 -252 -38 -37 -38 -37
-540 2 -539 3 0 115 0 115 445 5 445 5 3 80 c2 44 0 90 -3 102 l-5 23 -411 0
-411 0 -34 34 -34 34 0 261 c0 223 2 262 15 267 8 4 15 17 15 30 0 19 5 24 24
24 13 0 26 7 30 15 5 13 68 15 508 13 l503 -3 3 -109z m1360 62 l51 -53 1
-501 c0 -419 -2 -503 -14 -513 -9 -8 -53 -11 -132 -9 l-119 3 -5 165 -5 165
-310 0 -310 0 -5 -165 -5 -165 -119 -3 c-78 -2 -123 1 -132 9 -12 9 -14 99
-14 527 l0 516 22 23 c12 13 29 23 39 23 9 0 22 7 29 15 11 13 78 15 494 15
l482 0 52 -52z m1281 -17 l31 -39 0 -174 c0 -141 -3 -178 -16 -196 -14 -20
-14 -22 2 -22 24 0 64 -39 64 -62 0 -10 7 -21 15 -24 13 -5 15 -41 15 -233 l0
-227 -36 -42 c-19 -23 -42 -42 -50 -42 -9 0 -22 -7 -30 -15 -13 -13 -86 -15
-529 -15 -282 0 -520 3 -529 6 -14 6 -16 64 -16 558 0 304 3 556 7 559 3 4
239 7 524 7 l517 0 31 -39z m1459 -54 c2 -57 -1 -94 -9 -103 -9 -12 -86 -14
-450 -14 l-439 0 0 -115 0 -115 291 0 c181 0 298 -4 310 -10 17 -9 19 -22 19
-105 0 -51 -3 -100 -6 -109 -5 -14 -42 -16 -310 -16 l-304 0 0 -105 0 -105
444 0 c396 0 445 -2 450 -16 11 -29 7 -199 -6 -212 -9 -9 -140 -12 -529 -12
-447 0 -520 2 -533 15 -8 8 -21 15 -29 15 -8 0 -31 16 -51 36 l-36 36 0 481 0
481 32 33 32 33 561 -2 560 -3 3 -88z m1312 -6 c0 -81 -3 -100 -16 -105 -9 -3
-209 -6 -445 -6 l-429 0 0 -115 0 -115 308 0 c169 0 313 -4 320 -8 9 -6 12
-37 10 -118 l-3 -109 -317 -3 -318 -2 0 -105 0 -105 443 -2 442 -3 0 -115 0
-115 -511 -3 c-446 -2 -513 0 -524 13 -7 8 -19 15 -27 15 -8 0 -32 17 -54 37
l-39 37 0 475 0 475 37 38 37 38 543 0 543 0 0 -99z m-33 -1163 l33 -32 0
-133 c0 -120 -2 -135 -20 -153 -12 -12 -33 -20 -53 -20 -18 0 -38 -5 -43 -10
-12 -12 -9151 -8 -9204 4 -19 5 -45 18 -57 29 -22 19 -23 28 -23 150 l0 130
33 33 32 33 4635 0 4634 1 33 -32z"/>
<path d="M10445 3230 c-18 -20 -17 -20 46 -20 54 0 67 -4 87 -24 12 -13 22
-30 22 -38 0 -20 -21 -38 -43 -38 -17 0 -15 -4 12 -30 17 -17 31 -37 31 -45 0
-13 3 -13 20 -3 17 11 20 24 20 80 0 72 -17 108 -53 108 -9 0 -20 7 -23 15
-10 24 -96 20 -119 -5z"/>
<path d="M10387 3172 c-22 -24 -23 -98 -2 -106 8 -3 15 -15 15 -26 0 -12 5
-18 10 -15 12 7 14 165 2 165 -5 0 -16 -8 -25 -18z"/>
<path d="M10484 3155 c-8 -19 -5 -22 21 -27 14 -2 20 3 20 17 0 24 -33 33 -41
10z"/>
<path d="M10486 3073 c-3 -4 -6 -19 -6 -34 0 -16 -7 -32 -17 -38 -14 -8 0 -10
52 -10 44 1 61 4 45 8 -14 4 -27 16 -29 26 -4 23 -36 57 -45 48z"/>
<path d="M2902 2393 l3 -158 308 -3 307 -2 0 160 0 160 -310 0 -311 0 3 -157z"/>
<path d="M5580 2390 l0 -160 315 0 315 0 0 160 0 160 -315 0 -315 0 0 -160z"/>
<path d="M6920 2435 l0 -115 275 0 275 0 0 115 0 115 -275 0 -275 0 0 -115z"/>
<path d="M6924 2067 c-3 -8 -4 -54 -2 -103 l3 -89 303 -3 302 -2 0 105 0 105
-300 0 c-241 0 -302 -3 -306 -13z"/>
<path d="M3760 1460 c0 -5 16 -10 36 -10 21 0 33 4 29 10 -3 6 -19 10 -36 10
-16 0 -29 -4 -29 -10z"/>
<path d="M4017 1463 c-4 -3 -7 -65 -7 -136 0 -72 3 -127 7 -123 4 3 6 55 5
115 -2 86 1 112 13 124 8 9 15 18 15 21 0 8 -25 7 -33 -1z"/>
<path d="M4407 1463 c-4 -3 -7 -64 -7 -135 l0 -128 66 0 c41 0 63 4 59 10 -3
6 -21 10 -40 10 -36 0 -44 13 -37 63 3 21 10 27 29 27 13 0 21 4 18 10 -3 6
-15 10 -25 10 -22 0 -26 17 -21 77 3 43 3 43 43 43 23 0 37 4 33 10 -7 11
-108 14 -118 3z"/>
<path d="M4910 1460 c0 -5 12 -10 26 -10 14 0 23 4 19 10 -3 6 -15 10 -26 10
-10 0 -19 -4 -19 -10z"/>
<path d="M5105 1460 c-3 -5 3 -10 14 -10 12 0 21 5 21 10 0 6 -6 10 -14 10 -8
0 -18 -4 -21 -10z"/>
<path d="M6026 1455 c-3 -8 -14 -15 -25 -15 -11 0 -23 -4 -26 -10 -11 -19 55
-10 74 9 11 11 17 22 14 25 -11 11 -31 6 -37 -9z"/>
<path d="M6477 1456 c-3 -8 -5 -68 -4 -133 2 -114 3 -118 25 -121 26 -4 26 -3
7 34 -20 39 -20 172 0 200 8 12 11 24 8 28 -11 11 -31 6 -36 -8z"/>
<path d="M7180 1383 c0 -63 -4 -91 -15 -103 -14 -15 -13 -19 5 -35 20 -18 20
-18 20 89 0 85 3 108 15 112 18 7 10 24 -11 24 -11 0 -14 -18 -14 -87z"/>
<path d="M7320 1335 l0 -135 62 0 c71 0 69 17 -2 22 -43 3 -45 4 -48 37 -2 18
1 38 7 44 7 7 7 16 0 29 -6 10 -9 40 -7 66 3 46 3 47 41 50 52 4 46 22 -8 22
l-45 0 0 -135z"/>
<path d="M4260 1330 c0 -80 4 -130 10 -130 6 0 10 50 10 130 0 80 -4 130 -10
130 -6 0 -10 -50 -10 -130z"/>
<path d="M4627 1453 c-11 -11 -8 -241 3 -248 6 -4 10 27 10 85 0 68 3 92 14
96 8 3 37 -19 70 -52 43 -44 56 -53 56 -37 0 27 -140 170 -153 156z"/>
<path d="M4832 1435 c-7 -14 -12 -54 -12 -89 0 -50 -4 -65 -17 -70 -14 -6 -14
-9 5 -26 29 -27 32 -25 32 14 0 18 7 39 15 46 12 10 15 29 13 78 -3 70 -17 88
-36 47z"/>
<path d="M5270 1440 c0 -11 5 -20 10 -20 6 0 10 9 10 20 0 11 -4 20 -10 20 -5
0 -10 -9 -10 -20z"/>
<path d="M5492 1333 l3 -128 50 -3 c54 -3 54 14 0 20 l-30 3 -3 118 c-1 69 -7
117 -13 117 -6 0 -9 -47 -7 -127z"/>
<path d="M6174 1355 c0 -60 1 -84 3 -52 2 32 2 81 0 110 -2 29 -3 3 -3 -58z"/>
<path d="M6360 1369 c0 -57 4 -88 10 -84 6 3 10 44 10 91 0 49 -4 84 -10 84
-6 0 -10 -37 -10 -91z"/>
<path d="M6840 1329 c0 -84 4 -128 10 -124 6 4 10 58 10 131 0 76 -4 124 -10
124 -6 0 -10 -50 -10 -131z"/>
<path d="M3688 1419 c-10 -10 -18 -28 -18 -38 0 -10 -7 -21 -15 -25 -9 -3 -15
-18 -15 -34 0 -16 7 -35 15 -42 8 -7 15 -21 15 -31 0 -14 7 -19 28 -19 23 1
24 2 10 11 -14 8 -18 24 -18 75 0 56 3 68 25 88 14 13 25 26 25 30 0 13 -36 3
-52 -15z"/>
<path d="M3867 1408 c24 -25 33 -44 36 -78 3 -39 4 -37 5 16 2 65 -14 94 -53
94 -16 0 -14 -5 12 -32z"/>
<path d="M4100 1431 c0 -5 5 -13 10 -16 19 -12 10 -46 -17 -69 -24 -20 -25
-26 -14 -40 18 -22 31 -20 31 5 0 11 7 27 16 36 21 21 15 87 -8 91 -10 2 -18
-1 -18 -7z"/>
<path d="M6650 1430 c0 -5 6 -10 14 -10 8 0 18 5 21 10 3 6 -3 10 -14 10 -12
0 -21 -4 -21 -10z"/>
<path d="M5024 1315 c0 -66 1 -92 3 -57 2 34 2 88 0 120 -2 31 -3 3 -3 -63z"/>
<path d="M6980 1355 c0 -58 -4 -77 -15 -81 -9 -4 -15 -19 -15 -41 0 -30 3 -34
23 -31 21 3 22 8 25 93 2 53 7 92 14 96 9 6 8 12 -1 23 -24 29 -31 17 -31 -59z"/>
<path d="M5240 1390 c0 -11 5 -20 10 -20 6 0 10 9 10 20 0 11 -4 20 -10 20 -5
0 -10 -9 -10 -20z"/>
<path d="M5300 1398 c0 -9 6 -28 14 -43 22 -41 11 -57 -38 -53 -34 2 -42 7
-44 26 -4 25 -22 30 -22 5 0 -9 -8 -25 -17 -35 -12 -13 -13 -22 -6 -29 8 -8
13 -8 17 0 4 6 36 11 72 11 66 0 104 -20 104 -54 0 -8 5 -18 10 -21 6 -4 10 8
10 28 0 22 -6 37 -15 41 -8 3 -15 14 -15 24 0 11 -7 25 -15 32 -8 7 -15 20
-15 30 0 9 -9 25 -20 35 -17 15 -20 16 -20 3z"/>
<path d="M6616 1398 c-12 -26 -3 -52 19 -56 28 -5 65 -42 65 -64 0 -10 5 -18
10 -18 6 0 10 12 10 28 0 29 -25 57 -65 72 -13 5 -25 19 -27 32 -4 19 -6 20
-12 6z"/>
<path d="M5902 1360 c-16 -26 -15 -90 2 -112 7 -10 24 -18 36 -18 22 0 22 1 7
18 -10 10 -17 22 -17 27 0 5 -7 16 -15 26 -14 15 -14 18 0 32 16 16 21 47 7
47 -4 0 -13 -9 -20 -20z"/>
<path d="M7365 1320 c-4 -6 5 -10 19 -10 14 0 26 5 26 10 0 6 -9 10 -19 10
-11 0 -23 -4 -26 -10z"/>
<path d="M3855 1250 c-18 -19 -17 -20 3 -20 15 0 22 6 22 20 0 11 -2 20 -3 20
-2 0 -12 -9 -22 -20z"/>
<path d="M4120 1252 c0 -25 36 -58 43 -40 4 13 -24 58 -37 58 -3 0 -6 -8 -6
-18z"/>
<path d="M6321 1246 c-17 -18 -35 -26 -58 -26 -18 0 -33 -4 -33 -10 0 -5 20
-10 43 -10 48 0 82 25 75 55 -2 14 -7 12 -27 -9z"/>
<path d="M5162 1220 c0 -14 2 -19 5 -12 2 6 2 18 0 25 -3 6 -5 1 -5 -13z"/>
<path d="M3735 1210 c-4 -6 13 -10 45 -10 32 0 49 4 45 10 -3 6 -24 10 -45 10
-21 0 -42 -4 -45 -10z"/>
<path d="M5975 1210 c-4 -6 18 -10 60 -10 42 0 64 4 60 10 -3 6 -30 10 -60 10
-30 0 -57 -4 -60 -10z"/>
<path d="M6625 1210 c-3 -5 3 -10 15 -10 12 0 18 5 15 10 -3 6 -10 10 -15 10
-5 0 -12 -4 -15 -10z"/>
</g>
</svg>
